<svg xmlns="http://www.w3.org/2000/svg" width="14" height="12" viewBox="0 0 14 12">
    <g fill="none" fill-rule="evenodd">
        <g fill="#EB2127">
            <g>
                <g>
                    <path d="M11.358 6.57c-.456-.46-1.14-.46-1.596 0L7.14 9.218v-7.6C7.14.928 6.684.467 6 .467c-.684 0-1.14.46-1.14 1.151v7.6L2.238 6.57c-.456-.46-1.14-.46-1.596 0-.456.46-.456 1.151 0 1.612l4.56 4.606c.114.115.228.23.342.23.114.115.342.115.456.115.114 0 .342 0 .456-.115.114-.115.228-.115.342-.23l4.56-4.606c.456-.46.456-1.152 0-1.612" transform="translate(-781 -5320) translate(641 5314) rotate(-90 79 -61)"/>
                </g>
            </g>
        </g>
    </g>
</svg>
