<svg xmlns="http://www.w3.org/2000/svg" width="436" height="603" viewBox="0 0 436 603">
    <g fill="none" fill-rule="evenodd">
        <g>
            <g>
                <g>
                    <path fill="#181818" d="M177.809 468.619c-8.548 8.005-5.19 21.7-19.284 26.856-7.51 2.747-17.157.232-24.72 2.939-5.901 2.112-14.993 9.36-20.843 10.18-5.71.801-4.774-2.156-9.87-5.312-2.315-1.434-5.18.766-7.517-1.982-4.662-5.486.14-3.824.296-9.2.284-9.785 3.036-23.336.212-33.758-2.664-9.83-5.467-18.655-6.753-28.86-1.233-9.783-6.158-17.703-5.637-27.954.268-5.249 2.074-6.323.118-11.618-1.945-5.266-5-5.85-5.657-12.661-.3-3.097-1.356-11.173-.067-13.945 2.175-4.677 8.142-2.118 6.402-9.07-2.611-10.433-13.922-1.633-19.345-7.71-6.953-7.796 4.72-12.073 3.717-19.543-1.227-9.149-13.464-6.304-17.038-13.048-2.144-4.047.266-8.733.456-12.838.175-3.776-3.054-10.258-2.86-12.318.999-10.617 11.71-3.527 13.784-12.066 2.002-8.24-3.229-14.78-.182-23.341 3.387-9.513 9.838-11.415-1.38-15.098-6.928-2.275-15.883-3.994-22.604-5.405-9.094-1.91-16.043 1.015-22.098-7.48-3.18-4.461-2.809-9.845-6.006-13.97-2.504-3.233-9.633-3.231-10.821-8.573-1.226-5.51 7.993-13.88 10.055-17.5 2.827-4.96 9.88-19.811 14.012-4.501-3.021-9.588 8.227-5.66 12.758-9.714 7.356-6.581 2.257-16.548 2.292-23.894 3.779.895 9.445 2.483 13.57 2.492 4.749.01 10.863-4.869 14.653-4.424 3.867.455 6.26 6.329 9.977 6.492 5.865.257 7.071-5.105 11.9-8.383-.546-5.618-4.077-2.545-6.905-6.444-3.029-4.177-2.226-11.065-5.194-14.52-5.413-6.3-2.89.83-8.597-.383-3.92-.835-6.387-3.589-10.106-4.537-7.112-1.815-7.98.412-13.677-4.005-4.855-3.763-4.014-6.284-7.79-11.23-5.086-6.66-16.224-18.543-22.257-9-5.312-5.084-8.154-10.126-5.588-16.717.869-2.233 4.607-3.615 5.463-6.054 1.087-3.104-1.739-5.805-.851-9.111 1.726-6.427 7.555-8.946 12.426-13.118 1.737-1.489 4.438-.796 6.027-2.791 1.92-2.411.644-6.22 2.638-8.816 3.061-3.988 11.068-2.539 8.538-8.584-1.388-3.317-7.841-2.432-9.025-3.033-4.13-2.094-5.368-.409-5.895-8.434C28.088 9.808 29.71 1.886 37.98 0c.076 3.298.046 6.744.266 10.043 5.577 1.817 9.427 6.915 14.224 10.378 2.987 2.156 3.73 3.14 6.584 4.621 2.393 1.243 5.508.785 7.933 2.348 9.701 6.25 8.085 11.818 20.319 9.024.395 1.224.91 2.167 1.256 3.402 3.484.519 5.38.71 8.054 2.884 1.684-9.17-8.323-10.493-9.96-18.397 6.134.695 17.525 4.864 19.358 11.564 1.01 3.687-3.05 7.32-1.347 10.668 1.631 3.207 7.808 4.613 10.742 6.697 3.56 2.529 6.843 8.848 10.947 10.32 4.008 1.436 7.354-2.799 11.402-1.255 4.564 1.742 2.757 7.76 7.272 7.311 2.582-.257 4.467-6.54 4.88-8.245.295-1.22-2.86-3.54-2.798-5.111.077-1.96 2.98-1.992 3.034-2.95.171-3.068-.807-6.311.888-9.452 5.832 6.962 10.178 7.458 14.695 16.63 3.101 6.298 10.265 13.008 9.38 19.522-1.32 9.706-4.125 13.694-1.98 24.41 1.335 6.668 2.38 9.64.047 15.935-2.12 5.72-7.011 8.297-3.59 15.234 1.449-.07 1.915-1.006 2.635-1.488 3.946.288 9.31 1.254 10.401 5.454 9.35 3.025 16.884 6.4 27.469 7.583 11.488 1.282 21.902 6.193 32.962 7.46 11.766 1.349 26.463-2.419 38.135-4.179 7.97-1.202 22.864-4.68 30.508-3.083 6.396 1.335 7.114 6.332 14.674 5.41 3.922-.48 9.352-8.19 9.932 1.736 7.235.5 11.041-5.917 17.486-7.431 3.606-.848 10.706 1.455 14.958 1.063 5.446-.502 12.307-3.717 17.696-1.396 7.794 3.356 11.44 13.84 18.825 17.93 6.965 3.855 15.59 9.427 13.62 19.65-6.218-2.407-13.293-2.528-19.62-4.285-2.502-.695-3.882-6.066-6.585-3.321-2.746 2.79 3.395 6.15 3.95 8.273 2 7.662-3.544 37.3-10.99 34.025-.495 8.936 1.286 9.654-5.729 12.932-5.05 2.36-13.179 1.367-9.432 9.384-2.64.268-4.084 1.495-7.236.051.397 2.676 2.664 12.733.764 15.287-4.165 5.597-9.251-.38-10.333-5.92-3.862.043-5.322 3.208-4.638 7.213-3.396-.479-6.974-2.282-10.174-3.559-4.162 7.218-15.586 8.393-23.052 6.544-3.747 4.644-3.125 9.94-5.717 14.386-.985 1.69-4.114 4.82-4.698 5.952-.6 1.162-1.86 3.596-2.866 5.626-1.21 2.441-.769 5.695-1.993 8.235-.64 1.328-4.012 1.58-4.257 2.216-2.382 6.173 1.008 8.431 1.695 12.133.5 2.693-.553 9.083.566 11.77.859 2.06 4.87 1.92 5.95 3.84 1.718 3.051.975 4.11 1.847 7.5 2.606 10.131 4.892 21.143 6.658 31.598 5.098-2.193 4.885-8.751 4.656-13.748 13.702-2.626 3.89 34.392 29.188 21.376 21.63-11.128-9.906-34.774 19.202-38.504 1.92-6.65-.021-11.881-.89-18.263-.182-1.332 2.189-2.577 1.906-3.984-.752-3.743-3.66-5.733-3.783-9.355 11.442-4.654 9.256 3.583 13.076 10.457 2.344-.266 16.04-19.476 14.945-2.008 6.488-17.12 12.526 18.636 14.691 24.81 2.872 8.186.804 10.209.4 17.18-.327 5.615 1.738 10.28 2.26 15.821.43 4.564-2.09 8.018.227 13.122 1.053 2.32 4.056 2.048 5.074 5.132 1.085 3.286-.03 6.82.384 10.191 1.51 12.316 8.46 23.854 10.392 36.34 1.843 11.912-4.098 19.557 2.479 30.428-1.05.029-2.746.957-4.155.94-1.708 6.62 3.123 11.556 4.863 17.685 2.626 9.256.053 16.184-1.272 24.848-1.866 12.214 3.062 23.002 6.361 30.936-3.464 1.756-5 5.849-8.22 7.336-.678-2.922-.088-8.431-2.704-10.383-3.536-2.64-8.013 1.799-11.24.063-3.42-1.84-.251-7.162-5.752-8.264-2.883-.577-10.406 6.981-11.13 8.917-1.944 5.208 2.1 7.793 1.813 13.354-.295 5.737-4.044 6.09-2.884 12.48 1.252 6.906 7.705 13.31 9.352 20.6 1.22 5.395 2.553 11.705 1.752 17.323-9.933-4.724-15.07-23.564-20.577-32.554-5.168-8.437-14.5-11.245-16.533-20.127-2.492-10.889-2.267-16.412-7.918-25.949-5.578-9.413-3.525-11.361-.45-21.027 3.947-12.405 2.806-21.103-2.86-32.684-5.3-10.832-5.602-19.362-8.544-30.61-3.136-11.984-11.917-16.29-18.436-25.365-5.586-7.779-2.414-12.228-12.44-6.745-3.831 2.095-7.264 9.254-12.005 10.49-3.54.923-6.297-1.47-9.532-1.26-6.843.445-15.947 2.36-21.678 6.876-6.815-4.274-10.368-10.988-13.257-18.139-.978-2.421-1.725-6.803-2.738-8.768-3.428-6.648-4.956-4.77-10.332-8.387-4.601-3.096-5.824-5.106-8.729-10.3-.788-1.411-9.37-17.494-11.636-5.562-1.15 6.047 19.734 13.314 17.753 24.22.996-.53 2.325-.929 3.396-1.505 5.301 8.042-9.812 10.026-13.47 14.759 5.373 6.102 3.993 5.45 4.294 11.21.185 3.54-1.742 5.36-.946 9.418.603 3.072 4.616 4.408 4.741 8.777.122 4.282-3.382 5.463-3.606 7.899-.311 3.392 3.416 7.533 2.786 10.11-1.503 6.147-14.812 9.365-17.402 17.778-.754 2.45.437 8.81-.338 10.128-2.208 3.754-5.279 1.864-8.3 4.44-4.87 4.152-8.533 16.758-18.705 13.148-12.034-4.27-7.439-23.34-18.716-30.652" transform="translate(-803 -1933) translate(804 1935)"/>
                    <path stroke="#010101" stroke-width="2" d="M177.809 468.619c-8.548 8.005-5.19 21.7-19.284 26.856-7.51 2.747-17.157.232-24.72 2.939-5.901 2.112-14.993 9.36-20.843 10.18-5.71.801-4.774-2.156-9.87-5.312-2.315-1.434-5.18.766-7.517-1.982-4.662-5.486.14-3.824.296-9.2.284-9.785 3.036-23.336.212-33.758-2.664-9.83-5.467-18.655-6.753-28.86-1.233-9.783-6.158-17.703-5.637-27.954.268-5.249 2.074-6.323.118-11.618-1.945-5.266-5-5.85-5.657-12.661-.3-3.097-1.356-11.173-.067-13.945 2.175-4.677 8.142-2.118 6.402-9.07-2.611-10.433-13.922-1.633-19.345-7.71-6.953-7.796 4.72-12.073 3.717-19.543-1.227-9.149-13.464-6.304-17.038-13.048-2.144-4.047.266-8.733.456-12.838.175-3.776-3.054-10.258-2.86-12.318.999-10.617 11.71-3.527 13.784-12.066 2.002-8.24-3.229-14.78-.182-23.341 3.387-9.513 9.838-11.415-1.38-15.098-6.928-2.275-15.883-3.994-22.604-5.405-9.094-1.91-16.043 1.015-22.098-7.48-3.18-4.461-2.809-9.845-6.006-13.97-2.504-3.233-9.633-3.231-10.821-8.573-1.226-5.51 7.993-13.88 10.055-17.5 2.827-4.96 9.88-19.811 14.012-4.501-3.021-9.588 8.227-5.66 12.758-9.714 7.356-6.581 2.257-16.548 2.292-23.894 3.779.895 9.445 2.483 13.57 2.492 4.749.01 10.863-4.869 14.653-4.424 3.867.455 6.26 6.329 9.977 6.492 5.865.257 7.071-5.105 11.9-8.383-.546-5.618-4.077-2.545-6.905-6.444-3.029-4.177-2.226-11.065-5.194-14.52-5.413-6.3-2.89.83-8.597-.383-3.92-.835-6.387-3.589-10.106-4.537-7.112-1.815-7.98.412-13.677-4.005-4.855-3.763-4.014-6.284-7.79-11.23-5.086-6.66-16.224-18.543-22.257-9-5.312-5.084-8.154-10.126-5.588-16.717.869-2.233 4.607-3.615 5.463-6.054 1.087-3.104-1.739-5.805-.851-9.111 1.726-6.427 7.555-8.946 12.426-13.118 1.737-1.489 4.438-.796 6.027-2.791 1.92-2.411.644-6.22 2.638-8.816 3.061-3.988 11.068-2.539 8.538-8.584-1.388-3.317-7.841-2.432-9.025-3.033-4.13-2.094-5.368-.409-5.895-8.434C28.088 9.808 29.71 1.886 37.98 0c.076 3.298.046 6.744.266 10.043 5.577 1.817 9.427 6.915 14.224 10.378 2.987 2.156 3.73 3.14 6.584 4.621 2.393 1.243 5.508.785 7.933 2.348 9.701 6.25 8.085 11.818 20.319 9.024.395 1.224.91 2.167 1.256 3.402 3.484.519 5.38.71 8.054 2.884 1.684-9.17-8.323-10.493-9.96-18.397 6.134.695 17.525 4.864 19.358 11.564 1.01 3.687-3.05 7.32-1.347 10.668 1.631 3.207 7.808 4.613 10.742 6.697 3.56 2.529 6.843 8.848 10.947 10.32 4.008 1.436 7.354-2.799 11.402-1.255 4.564 1.742 2.757 7.76 7.272 7.311 2.582-.257 4.467-6.54 4.88-8.245.295-1.22-2.86-3.54-2.798-5.111.077-1.96 2.98-1.992 3.034-2.95.171-3.068-.807-6.311.888-9.452 5.832 6.962 10.178 7.458 14.695 16.63 3.101 6.298 10.265 13.008 9.38 19.522-1.32 9.706-4.125 13.694-1.98 24.41 1.335 6.668 2.38 9.64.047 15.935-2.12 5.72-7.011 8.297-3.59 15.234 1.449-.07 1.915-1.006 2.635-1.488 3.946.288 9.31 1.254 10.401 5.454 9.35 3.025 16.884 6.4 27.469 7.583 11.488 1.282 21.902 6.193 32.962 7.46 11.766 1.349 26.463-2.419 38.135-4.179 7.97-1.202 22.864-4.68 30.508-3.083 6.396 1.335 7.114 6.332 14.674 5.41 3.922-.48 9.352-8.19 9.932 1.736 7.235.5 11.041-5.917 17.486-7.431 3.606-.848 10.706 1.455 14.958 1.063 5.446-.502 12.307-3.717 17.696-1.396 7.794 3.356 11.44 13.84 18.825 17.93 6.965 3.855 15.59 9.427 13.62 19.65-6.218-2.407-13.293-2.528-19.62-4.285-2.502-.695-3.882-6.066-6.585-3.321-2.746 2.79 3.395 6.15 3.95 8.273 2 7.662-3.544 37.3-10.99 34.025-.495 8.936 1.286 9.654-5.729 12.932-5.05 2.36-13.179 1.367-9.432 9.384-2.64.268-4.084 1.495-7.236.051.397 2.676 2.664 12.733.764 15.287-4.165 5.597-9.251-.38-10.333-5.92-3.862.043-5.322 3.208-4.638 7.213-3.396-.479-6.974-2.282-10.174-3.559-4.162 7.218-15.586 8.393-23.052 6.544-3.747 4.644-3.125 9.94-5.717 14.386-.985 1.69-4.114 4.82-4.698 5.952-.6 1.162-1.86 3.596-2.866 5.626-1.21 2.441-.769 5.695-1.993 8.235-.64 1.328-4.012 1.58-4.257 2.216-2.382 6.173 1.008 8.431 1.695 12.133.5 2.693-.553 9.083.566 11.77.859 2.06 4.87 1.92 5.95 3.84 1.718 3.051.975 4.11 1.847 7.5 2.606 10.131 4.892 21.143 6.658 31.598 5.098-2.193 4.885-8.751 4.656-13.748 13.702-2.626 3.89 34.392 29.188 21.376 21.63-11.128-9.906-34.774 19.202-38.504 1.92-6.65-.021-11.881-.89-18.263-.182-1.332 2.189-2.577 1.906-3.984-.752-3.743-3.66-5.733-3.783-9.355 11.442-4.654 9.256 3.583 13.076 10.457 2.344-.266 16.04-19.476 14.945-2.008 6.488-17.12 12.526 18.636 14.691 24.81 2.872 8.186.804 10.209.4 17.18-.327 5.615 1.738 10.28 2.26 15.821.43 4.564-2.09 8.018.227 13.122 1.053 2.32 4.056 2.048 5.074 5.132 1.085 3.286-.03 6.82.384 10.191 1.51 12.316 8.46 23.854 10.392 36.34 1.843 11.912-4.098 19.557 2.479 30.428-1.05.029-2.746.957-4.155.94-1.708 6.62 3.123 11.556 4.863 17.685 2.626 9.256.053 16.184-1.272 24.848-1.866 12.214 3.062 23.002 6.361 30.936-3.464 1.756-5 5.849-8.22 7.336-.678-2.922-.088-8.431-2.704-10.383-3.536-2.64-8.013 1.799-11.24.063-3.42-1.84-.251-7.162-5.752-8.264-2.883-.577-10.406 6.981-11.13 8.917-1.944 5.208 2.1 7.793 1.813 13.354-.295 5.737-4.044 6.09-2.884 12.48 1.252 6.906 7.705 13.31 9.352 20.6 1.22 5.395 2.553 11.705 1.752 17.323-9.933-4.724-15.07-23.564-20.577-32.554-5.168-8.437-14.5-11.245-16.533-20.127-2.492-10.889-2.267-16.412-7.918-25.949-5.578-9.413-3.525-11.361-.45-21.027 3.947-12.405 2.806-21.103-2.86-32.684-5.3-10.832-5.602-19.362-8.544-30.61-3.136-11.984-11.917-16.29-18.436-25.365-5.586-7.779-2.414-12.228-12.44-6.745-3.831 2.095-7.264 9.254-12.005 10.49-3.54.923-6.297-1.47-9.532-1.26-6.843.445-15.947 2.36-21.678 6.876-6.815-4.274-10.368-10.988-13.257-18.139-.978-2.421-1.725-6.803-2.738-8.768-3.428-6.648-4.956-4.77-10.332-8.387-4.601-3.096-5.824-5.106-8.729-10.3-.788-1.411-9.37-17.494-11.636-5.562-1.15 6.047 19.734 13.314 17.753 24.22.996-.53 2.325-.929 3.396-1.505 5.301 8.042-9.812 10.026-13.47 14.759 5.373 6.102 3.993 5.45 4.294 11.21.185 3.54-1.742 5.36-.946 9.418.603 3.072 4.616 4.408 4.741 8.777.122 4.282-3.382 5.463-3.606 7.899-.311 3.392 3.416 7.533 2.786 10.11-1.503 6.147-14.812 9.365-17.402 17.778-.754 2.45.437 8.81-.338 10.128-2.208 3.754-5.279 1.864-8.3 4.44-4.87 4.152-8.533 16.758-18.705 13.148-12.034-4.27-7.439-23.34-18.716-30.652z" transform="translate(-803 -1933) translate(804 1935)"/>
                    <path fill="#181818" d="M178.919 469.02c-1.416-3.646-2.829-7.305-3.096-10.777-.283-3.679 1.219-6.517 1.473-10.203.13-1.913-1.751-2.777-1.574-4.536.17-1.7 2.482-2.905 2.543-4.367.098-2.375-2.257-7.445-1.717-9.59 1.266-5.03 5.972-5.007 5.864-10.025-.058-2.658-2.34-8.33-2.837-11.529-.904-5.825-1.74-9.336.375-15.134 1.369-3.755 2.83-5.208 3.032-9.48.332-7.005-4.011-14.388-4.183-21.514-.27-11.246-3.815-21.215-8.315-31.718-5.75-13.413-14.279-24.774-19.809-38.316-5.273-12.91-12.664-29.148-21.47-40.025-7.655-9.454-16.674-7.525-27.189-9.47-10.255-1.9-20.058-7.409-30.289-9.008-7.059-1.103-13.017.715-18.82 3.344 3.27.766 6.498 1.608 9.376 2.547 11.266 3.674 4.787 5.57 1.386 15.06-3.06 8.54 2.193 15.064.183 23.283-2.083 8.517-12.84 1.445-13.844 12.036-.195 2.055 3.049 8.52 2.873 12.286-.191 4.096-2.612 8.77-.458 12.806 3.589 6.728 15.878 3.89 17.11 13.017 1.008 7.45-10.715 11.718-3.732 19.493 5.445 6.064 16.805-2.715 19.427 7.69 1.748 6.936-4.245 4.384-6.429 9.05-1.295 2.764-.234 10.82.066 13.909.66 6.794 3.73 7.377 5.682 12.63 1.965 5.282.15 6.354-.118 11.589-.523 10.225 4.423 18.125 5.66 27.884 1.292 10.18 4.108 18.983 6.783 28.788 2.836 10.397.072 23.914-.213 33.675-.157 5.362-4.979 3.704-.297 9.176 2.347 2.742 5.225.548 7.55 1.977 5.117 3.149 4.177 6.098 9.911 5.3 5.875-.818 15.006-8.05 20.932-10.155 7.595-2.7 17.283-.191 24.827-2.933 14.136-5.136 10.79-18.772 19.337-26.76" transform="translate(-803 -1933) translate(804 1935)"/>
                    <path stroke="#010101" stroke-width="2" d="M178.919 469.02c-1.416-3.646-2.829-7.305-3.096-10.777-.283-3.679 1.219-6.517 1.473-10.203.13-1.913-1.751-2.777-1.574-4.536.17-1.7 2.482-2.905 2.543-4.367.098-2.375-2.257-7.445-1.717-9.59 1.266-5.03 5.972-5.007 5.864-10.025-.058-2.658-2.34-8.33-2.837-11.529-.904-5.825-1.74-9.336.375-15.134 1.369-3.755 2.83-5.208 3.032-9.48.332-7.005-4.011-14.388-4.183-21.514-.27-11.246-3.815-21.215-8.315-31.718-5.75-13.413-14.279-24.774-19.809-38.316-5.273-12.91-12.664-29.148-21.47-40.025-7.655-9.454-16.674-7.525-27.189-9.47-10.255-1.9-20.058-7.409-30.289-9.008-7.059-1.103-13.017.715-18.82 3.344 3.27.766 6.498 1.608 9.376 2.547 11.266 3.674 4.787 5.57 1.386 15.06-3.06 8.54 2.193 15.064.183 23.283-2.083 8.517-12.84 1.445-13.844 12.036-.195 2.055 3.049 8.52 2.873 12.286-.191 4.096-2.612 8.77-.458 12.806 3.589 6.728 15.878 3.89 17.11 13.017 1.008 7.45-10.715 11.718-3.732 19.493 5.445 6.064 16.805-2.715 19.427 7.69 1.748 6.936-4.245 4.384-6.429 9.05-1.295 2.764-.234 10.82.066 13.909.66 6.794 3.73 7.377 5.682 12.63 1.965 5.282.15 6.354-.118 11.589-.523 10.225 4.423 18.125 5.66 27.884 1.292 10.18 4.108 18.983 6.783 28.788 2.836 10.397.072 23.914-.213 33.675-.157 5.362-4.979 3.704-.297 9.176 2.347 2.742 5.225.548 7.55 1.977 5.117 3.149 4.177 6.098 9.911 5.3 5.875-.818 15.006-8.05 20.932-10.155 7.595-2.7 17.283-.191 24.827-2.933 14.136-5.136 10.79-18.772 19.337-26.76z" transform="translate(-803 -1933) translate(804 1935)"/>
                    <path fill="#181818" d="M249.18 410.042c-14.546-1.188 1.725 23.156 1.735 29.187.021 12.047-7.353 22.334-7.915 33.771 4.24-.356 13.072-13.359 15.662-17.915 2.996-5.266 5.133-9.737 4.054-16.74-.961-6.238-4.23-8.024-6.535-13.252-2.034-4.612.443-9.804-7-15.051" transform="translate(-803 -1933) translate(804 1935)"/>
                    <path stroke="#010101" stroke-width="2" d="M249.18 410.042c-14.546-1.188 1.725 23.156 1.735 29.187.021 12.047-7.353 22.334-7.915 33.771 4.24-.356 13.072-13.359 15.662-17.915 2.996-5.266 5.133-9.737 4.054-16.74-.961-6.238-4.23-8.024-6.535-13.252-2.034-4.612.443-9.804-7-15.051z" transform="translate(-803 -1933) translate(804 1935)"/>
                    <path fill="#181818" d="M288.354 429.69c-10.309 6-.881 11.36-3.418 22.096-1.71 7.24-5.998 10.986-4.692 19.214 15.684-2.578 28.759-48.103 8.11-41.31" transform="translate(-803 -1933) translate(804 1935)"/>
                    <path stroke="#010101" stroke-width="2" d="M288.354 429.69c-10.309 6-.881 11.36-3.418 22.096-1.71 7.24-5.998 10.986-4.692 19.214 15.684-2.578 28.759-48.103 8.11-41.31z" transform="translate(-803 -1933) translate(804 1935)"/>
                    <path fill="#181818" d="M324.59 417.291c-7.604 5.368 3.657 11.096 6.685 15.709 4.008-4.333.593-19.567-5.73-16.626-.611.284-.42.54-.955.917" transform="translate(-803 -1933) translate(804 1935)"/>
                    <path stroke="#010101" stroke-width="2" d="M324.59 417.291c-7.604 5.368 3.657 11.096 6.685 15.709 4.008-4.333.593-19.567-5.73-16.626-.611.284-.42.54-.955.917z" transform="translate(-803 -1933) translate(804 1935)"/>
                    <path fill="#181818" d="M240.151 479.951c-6.603-.976-8.726 12.697-2.182 12.025 3.867-.397 5.292-8.69 4.154-11.035.352 4.238 4.622 7.93 8.503 9.012 1.007-3.49-.081-6.789-2.503-9.083-.154-.926.09-3.53-.134-4.46-3.745-1.04-6.532-.19-7.838 3.541" transform="translate(-803 -1933) translate(804 1935)"/>
                    <path stroke="#010101" stroke-width="2" d="M240.151 479.951c-6.603-.976-8.726 12.697-2.182 12.025 3.867-.397 5.292-8.69 4.154-11.035.352 4.238 4.622 7.93 8.503 9.012 1.007-3.49-.081-6.789-2.503-9.083-.154-.926.09-3.53-.134-4.46-3.745-1.04-6.532-.19-7.838 3.541z" transform="translate(-803 -1933) translate(804 1935)"/>
                    <path fill="#181818" d="M301.88 256.086c3.251 4.748 3.585 11.506 4.464 16.771.274 1.638.463 4.251.74 7.143 1.1-1.289 2.393-2.766 2.966-3.755 2.589-4.474 1.967-9.803 5.71-14.477 7.457 1.86 18.868.679 23.026-6.586 3.195 1.286 6.769 3.1 10.162 3.582-.683-4.03.775-7.215 4.633-7.26 1.08 5.577 6.16 11.59 10.32 5.958 1.898-2.57-.367-12.69-.763-15.383 3.148 1.453 4.591.218 7.227-.051-3.742-8.068 4.378-7.07 9.422-9.445 7.006-3.298 5.228-4.021 5.723-13.014 7.436 3.297 12.974-26.53 10.976-34.24-.554-2.138-6.688-5.52-3.945-8.327 2.7-2.763 4.078 2.642 6.578 3.342 6.319 1.768 13.385 1.892 19.596 4.312 1.967-10.288-6.647-15.894-13.604-19.775-7.376-4.115-11.018-14.666-18.802-18.043-5.383-2.336-12.237.9-17.676 1.404-4.247.394-11.339-1.923-14.942-1.07-6.436 1.524-10.238 7.982-17.464 7.48-.58-9.99-6.004-2.23-9.921-1.749-7.552.928-8.268-4.1-14.657-5.444-7.635-1.606-22.513 1.894-30.473 3.103-2.713.413-5.594.935-8.56 1.476-.413.768-.778 1.566-1.041 2.433-1.66 5.473-.707 11.845-.786 17.584 0 .013-.232 9.904-.789 8.773 2.402 4.877 13.857 2.81 19.029 7.038 4.88 3.989 6.084 9.043 5.967 15.51-.03 1.725 1.261 2.47.64 4.527-.537 1.776-4.187 4.426-4.264 5.302-.594 6.76 7.542 6.412 8.818 13.388 1.406 7.69-8.818 13.144-5.926 20.95 1.477 3.986 4.953 4.652 7.617 8.543" transform="translate(-803 -1933) translate(804 1935)"/>
                    <path stroke="#010101" stroke-width="2" d="M301.88 256.086c3.251 4.748 3.585 11.506 4.464 16.771.274 1.638.463 4.251.74 7.143 1.1-1.289 2.393-2.766 2.966-3.755 2.589-4.474 1.967-9.803 5.71-14.477 7.457 1.86 18.868.679 23.026-6.586 3.195 1.286 6.769 3.1 10.162 3.582-.683-4.03.775-7.215 4.633-7.26 1.08 5.577 6.16 11.59 10.32 5.958 1.898-2.57-.367-12.69-.763-15.383 3.148 1.453 4.591.218 7.227-.051-3.742-8.068 4.378-7.07 9.422-9.445 7.006-3.298 5.228-4.021 5.723-13.014 7.436 3.297 12.974-26.53 10.976-34.24-.554-2.138-6.688-5.52-3.945-8.327 2.7-2.763 4.078 2.642 6.578 3.342 6.319 1.768 13.385 1.892 19.596 4.312 1.967-10.288-6.647-15.894-13.604-19.775-7.376-4.115-11.018-14.666-18.802-18.043-5.383-2.336-12.237.9-17.676 1.404-4.247.394-11.339-1.923-14.942-1.07-6.436 1.524-10.238 7.982-17.464 7.48-.58-9.99-6.004-2.23-9.921-1.749-7.552.928-8.268-4.1-14.657-5.444-7.635-1.606-22.513 1.894-30.473 3.103-2.713.413-5.594.935-8.56 1.476-.413.768-.778 1.566-1.041 2.433-1.66 5.473-.707 11.845-.786 17.584 0 .013-.232 9.904-.789 8.773 2.402 4.877 13.857 2.81 19.029 7.038 4.88 3.989 6.084 9.043 5.967 15.51-.03 1.725 1.261 2.47.64 4.527-.537 1.776-4.187 4.426-4.264 5.302-.594 6.76 7.542 6.412 8.818 13.388 1.406 7.69-8.818 13.144-5.926 20.95 1.477 3.986 4.953 4.652 7.617 8.543z" transform="translate(-803 -1933) translate(804 1935)"/>
                    <path fill="#181818" d="M422.13 534.455c2.603 1.954 2.016 7.47 2.69 10.394 3.204-1.489 4.733-5.586 8.18-7.343-3.283-7.944-8.187-18.744-6.33-30.97 1.319-8.675 3.879-15.61 1.266-24.876-1.732-6.136-6.539-11.078-4.839-17.706 1.402.018 3.088-.911 4.135-.941-6.545-10.882-.633-18.537-2.468-30.46-1.923-12.502-8.837-24.052-10.34-36.382-.411-3.374.697-6.912-.382-10.202-1.013-3.087-4.001-2.815-5.05-5.138-2.304-5.11.203-8.568-.225-13.136-.52-5.547-2.574-10.217-2.25-15.84.404-6.978 2.461-9.003-.397-17.199-2.154-6.18-8.163-41.976-14.618-24.837 1.09-17.486-12.54 1.744-14.872 2.01-3.8-6.88-1.626-15.127-13.01-10.467.12 3.624 3.015 5.617 3.763 9.365.281 1.409-2.077 2.655-1.897 3.989.865 6.387 2.797 11.625.886 18.282-28.964 3.735 2.415 27.407-19.107 38.547-8.203 4.246-12.695 3.172-15.497-.113-5.183 6.104-7.768 5.205-9.668 14.754-1.11 5.584-2.224 10.652-2.089 15.914 6.108-2.682 4.32 1.575 9.173 8.374 6.487 9.085 15.225 13.396 18.345 25.395 2.927 11.259 3.228 19.798 8.501 30.643 5.639 11.593 6.774 20.302 2.847 32.72-3.06 9.677-5.103 11.627.447 21.05 5.623 9.548 5.399 15.078 7.879 25.978 2.023 8.892 11.309 11.704 16.45 20.15 5.48 9 10.594 27.86 20.477 32.59.797-5.625-.53-11.942-1.743-17.343-1.64-7.298-8.06-13.709-9.307-20.622-1.154-6.398 2.577-6.75 2.871-12.494.284-5.567-3.739-8.156-1.804-13.37.72-1.938 8.206-9.504 11.074-8.927 5.474 1.104 2.322 6.432 5.724 8.274 3.211 1.737 7.665-2.705 11.185-.063" transform="translate(-803 -1933) translate(804 1935)"/>
                    <path stroke="#010101" stroke-width="2" d="M422.13 534.455c2.603 1.954 2.016 7.47 2.69 10.394 3.204-1.489 4.733-5.586 8.18-7.343-3.283-7.944-8.187-18.744-6.33-30.97 1.319-8.675 3.879-15.61 1.266-24.876-1.732-6.136-6.539-11.078-4.839-17.706 1.402.018 3.088-.911 4.135-.941-6.545-10.882-.633-18.537-2.468-30.46-1.923-12.502-8.837-24.052-10.34-36.382-.411-3.374.697-6.912-.382-10.202-1.013-3.087-4.001-2.815-5.05-5.138-2.304-5.11.203-8.568-.225-13.136-.52-5.547-2.574-10.217-2.25-15.84.404-6.978 2.461-9.003-.397-17.199-2.154-6.18-8.163-41.976-14.618-24.837 1.09-17.486-12.54 1.744-14.872 2.01-3.8-6.88-1.626-15.127-13.01-10.467.12 3.624 3.015 5.617 3.763 9.365.281 1.409-2.077 2.655-1.897 3.989.865 6.387 2.797 11.625.886 18.282-28.964 3.735 2.415 27.407-19.107 38.547-8.203 4.246-12.695 3.172-15.497-.113-5.183 6.104-7.768 5.205-9.668 14.754-1.11 5.584-2.224 10.652-2.089 15.914 6.108-2.682 4.32 1.575 9.173 8.374 6.487 9.085 15.225 13.396 18.345 25.395 2.927 11.259 3.228 19.798 8.501 30.643 5.639 11.593 6.774 20.302 2.847 32.72-3.06 9.677-5.103 11.627.447 21.05 5.623 9.548 5.399 15.078 7.879 25.978 2.023 8.892 11.309 11.704 16.45 20.15 5.48 9 10.594 27.86 20.477 32.59.797-5.625-.53-11.942-1.743-17.343-1.64-7.298-8.06-13.709-9.307-20.622-1.154-6.398 2.577-6.75 2.871-12.494.284-5.567-3.739-8.156-1.804-13.37.72-1.938 8.206-9.504 11.074-8.927 5.474 1.104 2.322 6.432 5.724 8.274 3.211 1.737 7.665-2.705 11.185-.063z" transform="translate(-803 -1933) translate(804 1935)"/>
                    <path fill="#181818" d="M311.26 208.842c8.023-13.469 8.346-26.67 3.792-42.507-1.524-5.298-3.339-11.96-5.76-18.627-8.08-.523-20.706 2.347-27.825 3.418-11.69 1.758-26.41 5.522-38.195 4.175-11.076-1.266-21.506-6.171-33.012-7.453-10.602-1.18-18.148-4.553-27.511-7.575-1.093-4.195-6.465-5.16-10.417-5.447-.721.48-1.188 1.416-2.639 1.486-3.427-6.93 1.472-9.504 3.595-15.219 2.336-6.288 1.29-9.256-.047-15.917-2.149-10.706.66-14.69 1.983-24.385.58-4.25-2.281-8.584-5.2-12.832-7.163-.609-14.44-.594-21.555-1.38-.86 1.913-2.018 3.694-3.371 3.829-3.146.312-3.23-2.501-4.527-4.828-3.366-.428-6.86-.85-10.438-1.226-1.207.335-2.437.468-3.738.003-.336-.12-.665-.283-.99-.463-26.314-2.358-56.105-1.31-73.198 18.989C49.797 85.745 43.767 95.66 39 106.2c1.66 3.055 2.05 5.205 5.765 8.077 5.706 4.411 6.575 2.187 13.698 4 3.725.948 6.195 3.698 10.12 4.532 5.717 1.213 3.191-5.91 8.612.383 2.973 3.452 2.169 10.332 5.202 14.505 2.833 3.895 6.368.826 6.916 6.437-4.836 3.276-6.045 8.632-11.919 8.375-3.723-.163-6.119-6.03-9.992-6.486-3.604-.422-9.303 3.943-13.941 4.377 6.644 4.294 13.51 6.64 23.225 7.123 11.862.591 21.559.987 29.708 10.368 5.865 6.752 12.93 14.335 17.623 21.973 4.67 7.6 4.574 13.54 6.003 22.187 1.434 8.678 5.504 15.307 9.457 22.96 6.061 11.736 3.272 20.64 4.282 32.703 4.53 2.214 7.325-2.247 12.023-1.225 4.905 1.067 4.924 5.762 8.052 8.152 5.857 4.475 5.665 1.607 12.318-.624 7.914-2.653 13.993-.257 20.425-5.579 2.763-2.285 4.258-4.134 7-5.888 3.344-2.14 6.122-2.058 8.281-6.343 1.943-3.858.764-7.773 3.564-11.139 3.218-3.867 10.307-5.875 15.033-6.797 19.029-3.708 25.676 14.215 37.191 24.665 13.274 12.047 16.656-1.106 8.281-12.31 6.363-5.252 15.087-2.631 21.69-5.638 15.776-7.183 6.588-24.304 13.642-36.146" transform="translate(-803 -1933) translate(804 1935)"/>
                    <path stroke="#010101" stroke-width="2" d="M311.26 208.842c8.023-13.469 8.346-26.67 3.792-42.507-1.524-5.298-3.339-11.96-5.76-18.627-8.08-.523-20.706 2.347-27.825 3.418-11.69 1.758-26.41 5.522-38.195 4.175-11.076-1.266-21.506-6.171-33.012-7.453-10.602-1.18-18.148-4.553-27.511-7.575-1.093-4.195-6.465-5.16-10.417-5.447-.721.48-1.188 1.416-2.639 1.486-3.427-6.93 1.472-9.504 3.595-15.219 2.336-6.288 1.29-9.256-.047-15.917-2.149-10.706.66-14.69 1.983-24.385.58-4.25-2.281-8.584-5.2-12.832-7.163-.609-14.44-.594-21.555-1.38-.86 1.913-2.018 3.694-3.371 3.829-3.146.312-3.23-2.501-4.527-4.828-3.366-.428-6.86-.85-10.438-1.226-1.207.335-2.437.468-3.738.003-.336-.12-.665-.283-.99-.463-26.314-2.358-56.105-1.31-73.198 18.989C49.797 85.745 43.767 95.66 39 106.2c1.66 3.055 2.05 5.205 5.765 8.077 5.706 4.411 6.575 2.187 13.698 4 3.725.948 6.195 3.698 10.12 4.532 5.717 1.213 3.191-5.91 8.612.383 2.973 3.452 2.169 10.332 5.202 14.505 2.833 3.895 6.368.826 6.916 6.437-4.836 3.276-6.045 8.632-11.919 8.375-3.723-.163-6.119-6.03-9.992-6.486-3.604-.422-9.303 3.943-13.941 4.377 6.644 4.294 13.51 6.64 23.225 7.123 11.862.591 21.559.987 29.708 10.368 5.865 6.752 12.93 14.335 17.623 21.973 4.67 7.6 4.574 13.54 6.003 22.187 1.434 8.678 5.504 15.307 9.457 22.96 6.061 11.736 3.272 20.64 4.282 32.703 4.53 2.214 7.325-2.247 12.023-1.225 4.905 1.067 4.924 5.762 8.052 8.152 5.857 4.475 5.665 1.607 12.318-.624 7.914-2.653 13.993-.257 20.425-5.579 2.763-2.285 4.258-4.134 7-5.888 3.344-2.14 6.122-2.058 8.281-6.343 1.943-3.858.764-7.773 3.564-11.139 3.218-3.867 10.307-5.875 15.033-6.797 19.029-3.708 25.676 14.215 37.191 24.665 13.274 12.047 16.656-1.106 8.281-12.31 6.363-5.252 15.087-2.631 21.69-5.638 15.776-7.183 6.588-24.304 13.642-36.146z" transform="translate(-803 -1933) translate(804 1935)"/>
                    <path fill="#181818" d="M124.994 256.418c-.231 3.807 1.02 7.479.857 11.23-.216 4.968-3.64 9.746-3.236 14.722.484 5.964 3.811 7.268 1.843 13.521-2.495 7.93-7.49 9.439 2.614 15.245 8.515 4.892 13.587 3.519 16.801 13.438 5.597 17.27 11.867 33.46 19.466 49.889 2.793 6.038 2.558 9.554 8.868 12.605 2.845 1.377 6.116 1.872 8.65 3.024 2.112.96 3.507 3.091 5.954 3.908 3.678-3.425 5.03-8.496 6.799-13.372.767-2.114 2.612-.876 3.049-3.73.342-2.241-1.929-5.152-1.38-7.973 7.622-1.234 12.952 5.102 16.682 10.702 3.725-3.136 4.408-8.025 8.375-10.04 3.993-2.026 10.92.118 14.698-2.206 4.724-2.905 9.972-14.175 10.5-19.093 1.758-16.367-9.775-18.02 2.301-31.685 5.508-6.232 9.843-12.442 12.88-20.188 2.2-5.611 2.605-11.3 8.435-14 3.18-1.472 6.931.34 8.994-2.42 2.325-3.108-.776-9.76-1.218-12.966-1.533-11.11-7.234-16.205-12.985-26.342-3.001-5.29-4.465-10.396-4.781-16.478-.235-4.501 1.562-10.014-1.812-13.733-7.027-7.745-30.71-.57-38.86 2.527-9.218 3.502-15.058 11.335-23.645 15.903-7.89 4.196-17.518 6.831-26.143 8.829-10.927 2.531-24.072.966-34.454 4.428-10.696 3.567-9.138 9.487-9.161 17.953 1.458.627 1.302-.285-.09-3.698" transform="translate(-803 -1933) translate(804 1935)"/>
                    <path stroke="#010101" stroke-width="2" d="M124.994 256.418c-.231 3.807 1.02 7.479.857 11.23-.216 4.968-3.64 9.746-3.236 14.722.484 5.964 3.811 7.268 1.843 13.521-2.495 7.93-7.49 9.439 2.614 15.245 8.515 4.892 13.587 3.519 16.801 13.438 5.597 17.27 11.867 33.46 19.466 49.889 2.793 6.038 2.558 9.554 8.868 12.605 2.845 1.377 6.116 1.872 8.65 3.024 2.112.96 3.507 3.091 5.954 3.908 3.678-3.425 5.03-8.496 6.799-13.372.767-2.114 2.612-.876 3.049-3.73.342-2.241-1.929-5.152-1.38-7.973 7.622-1.234 12.952 5.102 16.682 10.702 3.725-3.136 4.408-8.025 8.375-10.04 3.993-2.026 10.92.118 14.698-2.206 4.724-2.905 9.972-14.175 10.5-19.093 1.758-16.367-9.775-18.02 2.301-31.685 5.508-6.232 9.843-12.442 12.88-20.188 2.2-5.611 2.605-11.3 8.435-14 3.18-1.472 6.931.34 8.994-2.42 2.325-3.108-.776-9.76-1.218-12.966-1.533-11.11-7.234-16.205-12.985-26.342-3.001-5.29-4.465-10.396-4.781-16.478-.235-4.501 1.562-10.014-1.812-13.733-7.027-7.745-30.71-.57-38.86 2.527-9.218 3.502-15.058 11.335-23.645 15.903-7.89 4.196-17.518 6.831-26.143 8.829-10.927 2.531-24.072.966-34.454 4.428-10.696 3.567-9.138 9.487-9.161 17.953 1.458.627 1.302-.285-.09-3.698z" transform="translate(-803 -1933) translate(804 1935)"/>
                    <path fill="#181818" d="M165.663 203.192c-1.343-6.771-4.622-5.264-7.785-9.6-4.474-6.134-1.194-15.926-3.938-23.161-1.883-4.968-5.283-9.057-8.168-13.438-3.223-4.893-6.807-20.07-11.182-21.818-7.541-3.013-9.946-14.163-15.174-20.62-10.79-13.329-24.378-15.067-40.249-9.773-9.265 3.09-17.624 7.331-25.964 11.657 1.38.103 3.036.262 5.369.858 3.721.948 6.19 3.703 10.113 4.538 5.711 1.215 3.187-5.92 8.604.383 2.97 3.458 2.167 10.349 5.198 14.527 2.83 3.902 6.363.827 6.91 6.448-4.832 3.28-6.04 8.645-11.909 8.387-3.72-.163-6.114-6.04-9.984-6.495-3.794-.445-9.912 4.437-14.664 4.426-4.129-.01-9.8-1.598-13.581-2.493-.035 7.35 5.068 17.32-2.294 23.905-4.42 3.954-15.218.327-12.964 9.019-4.16-14.153-11.042.319-13.826 5.203-2.064 3.623-11.29 11.997-10.063 17.51 1.189 5.343 8.323 5.342 10.83 8.576 3.199 4.128 2.828 9.514 6.01 13.978 6.06 8.498 13.014 5.572 22.115 7.482 6.726 1.413 15.687 3.133 22.621 5.408 10.89 3.575 5.141 5.472 1.694 14.27 1.515 1.523 2.939 2.898 4.08 3.56 8.524 4.947 15.8 1.36 24.548 1.445 1.301 4.888 4.97 12.221 7.713 16.357 3.21 4.843 1.242 3.13 6.444 3.187 1.04.01 2.846-2.435 4.983-2.29 1.83.125 2.32 2.001 3.867 2.323 4.028.839 9.194-.178 12.918.843 6.245 1.715 7.612 8.821 13.117 11.616 4.918 2.498 13.028 1.39 18.456 1.059-1.845-4.941-3.842-9.81-2.177-15.618 1.355-4.73 4.766-7.183 6.449-12.002 2.225-6.372-.063-13.703-2.189-19.913-2.804-8.194-3.801-11.743-.463-20.468 2.46-6.427 5.98-11.996 4.535-19.276" transform="translate(-803 -1933) translate(804 1935)"/>
                    <path stroke="#000" stroke-width="2" d="M165.663 203.192c-1.343-6.771-4.622-5.264-7.785-9.6-4.474-6.134-1.194-15.926-3.938-23.161-1.883-4.968-5.283-9.057-8.168-13.438-3.223-4.893-6.807-20.07-11.182-21.818-7.541-3.013-9.946-14.163-15.174-20.62-10.79-13.329-24.378-15.067-40.249-9.773-9.265 3.09-17.624 7.331-25.964 11.657 1.38.103 3.036.262 5.369.858 3.721.948 6.19 3.703 10.113 4.538 5.711 1.215 3.187-5.92 8.604.383 2.97 3.458 2.167 10.349 5.198 14.527 2.83 3.902 6.363.827 6.91 6.448-4.832 3.28-6.04 8.645-11.909 8.387-3.72-.163-6.114-6.04-9.984-6.495-3.794-.445-9.912 4.437-14.664 4.426-4.129-.01-9.8-1.598-13.581-2.493-.035 7.35 5.068 17.32-2.294 23.905-4.42 3.954-15.218.327-12.964 9.019-4.16-14.153-11.042.319-13.826 5.203-2.064 3.623-11.29 11.997-10.063 17.51 1.189 5.343 8.323 5.342 10.83 8.576 3.199 4.128 2.828 9.514 6.01 13.978 6.06 8.498 13.014 5.572 22.115 7.482 6.726 1.413 15.687 3.133 22.621 5.408 10.89 3.575 5.141 5.472 1.694 14.27 1.515 1.523 2.939 2.898 4.08 3.56 8.524 4.947 15.8 1.36 24.548 1.445 1.301 4.888 4.97 12.221 7.713 16.357 3.21 4.843 1.242 3.13 6.444 3.187 1.04.01 2.846-2.435 4.983-2.29 1.83.125 2.32 2.001 3.867 2.323 4.028.839 9.194-.178 12.918.843 6.245 1.715 7.612 8.821 13.117 11.616 4.918 2.498 13.028 1.39 18.456 1.059-1.845-4.941-3.842-9.81-2.177-15.618 1.355-4.73 4.766-7.183 6.449-12.002 2.225-6.372-.063-13.703-2.189-19.913-2.804-8.194-3.801-11.743-.463-20.468 2.46-6.427 5.98-11.996 4.535-19.276z" transform="translate(-803 -1933) translate(804 1935)"/>
                    <path fill="#181818" d="M154.609 151.347c1.95-4.94 2.365-13.801 5.953-17.686 2.06-2.229 4.895-2.679 7.7-3.163.373-3.532 3.236-6.005 4.73-10.036 2.333-6.3 1.288-9.275-.048-15.95-2.146-10.726.66-14.718 1.98-24.433.887-6.52-6.281-13.237-9.384-19.542-4.518-9.18-8.866-9.676-14.7-16.645-1.696 3.144-.718 6.391-.89 9.46-.053.96-2.958.992-3.035 2.954-.061 1.572 3.095 3.895 2.8 5.115-.413 1.708-2.3 7.996-4.883 8.254-4.517.45-2.708-5.574-7.275-7.318-4.05-1.545-7.398 2.693-11.407 1.255-4.105-1.472-7.39-7.798-10.953-10.329-2.934-2.086-9.114-3.494-10.746-6.703-1.704-3.351 2.357-6.987 1.348-10.679-1.834-6.706-13.23-10.878-19.367-11.575 1.638 7.912 11.65 9.236 9.964 18.415-2.675-2.177-4.572-2.367-8.057-2.886-.345-1.237-.861-2.18-1.257-3.406-12.239 2.796-10.622-2.777-20.327-9.032-2.427-1.565-5.543-1.107-7.937-2.35-2.855-1.484-3.6-2.468-6.587-4.626-4.8-3.466-8.65-8.57-14.23-10.389-.221-3.3-.19-6.75-.266-10.052-8.274 1.889-9.896 9.818-9.448 16.651.528 8.033 1.766 6.346 5.898 8.443 1.184.6 7.64-.285 9.029 3.035 2.531 6.05-5.48 4.6-8.542 8.592-1.995 2.6-.718 6.411-2.64 8.825-1.589 1.996-4.291 1.304-6.03 2.793-4.873 4.176-10.705 6.697-12.43 13.13-.89 3.31 1.938 6.014.85 9.12-.855 2.443-4.595 3.825-5.465 6.06-2.567 6.597.277 11.645 5.59 16.733 6.037-9.552 17.18 2.343 22.267 9.01 3.779 4.95 2.937 7.473 7.795 11.24 5.7 4.42 6.567 2.192 13.683 4.008 3.72.95 6.188 3.706 10.11 4.541 5.709 1.216 3.186-5.922 8.601.384 2.97 3.46 2.166 10.353 5.197 14.534 2.185 3.015 4.788 1.869 6.113 3.781 5.301 1.016 7.687-2.69 13.083-3.104 11.115-.851 7.818 9.452 10.86 15.635 3.973 8.075 4.569.83 10.719 3.287 5.07 2.025 3.71 8.597 11.484 9.228 1.064.086 15.136.173 15.587-.211 3.399-2.905-7.399-14.145 4.563-14.368" transform="translate(-803 -1933) translate(804 1935)"/>
                    <path stroke="#000" stroke-width="2" d="M154.609 151.347c1.95-4.94 2.365-13.801 5.953-17.686 2.06-2.229 4.895-2.679 7.7-3.163.373-3.532 3.236-6.005 4.73-10.036 2.333-6.3 1.288-9.275-.048-15.95-2.146-10.726.66-14.718 1.98-24.433.887-6.52-6.281-13.237-9.384-19.542-4.518-9.18-8.866-9.676-14.7-16.645-1.696 3.144-.718 6.391-.89 9.46-.053.96-2.958.992-3.035 2.954-.061 1.572 3.095 3.895 2.8 5.115-.413 1.708-2.3 7.996-4.883 8.254-4.517.45-2.708-5.574-7.275-7.318-4.05-1.545-7.398 2.693-11.407 1.255-4.105-1.472-7.39-7.798-10.953-10.329-2.934-2.086-9.114-3.494-10.746-6.703-1.704-3.351 2.357-6.987 1.348-10.679-1.834-6.706-13.23-10.878-19.367-11.575 1.638 7.912 11.65 9.236 9.964 18.415-2.675-2.177-4.572-2.367-8.057-2.886-.345-1.237-.861-2.18-1.257-3.406-12.239 2.796-10.622-2.777-20.327-9.032-2.427-1.565-5.543-1.107-7.937-2.35-2.855-1.484-3.6-2.468-6.587-4.626-4.8-3.466-8.65-8.57-14.23-10.389-.221-3.3-.19-6.75-.266-10.052-8.274 1.889-9.896 9.818-9.448 16.651.528 8.033 1.766 6.346 5.898 8.443 1.184.6 7.64-.285 9.029 3.035 2.531 6.05-5.48 4.6-8.542 8.592-1.995 2.6-.718 6.411-2.64 8.825-1.589 1.996-4.291 1.304-6.03 2.793-4.873 4.176-10.705 6.697-12.43 13.13-.89 3.31 1.938 6.014.85 9.12-.855 2.443-4.595 3.825-5.465 6.06-2.567 6.597.277 11.645 5.59 16.733 6.037-9.552 17.18 2.343 22.267 9.01 3.779 4.95 2.937 7.473 7.795 11.24 5.7 4.42 6.567 2.192 13.683 4.008 3.72.95 6.188 3.706 10.11 4.541 5.709 1.216 3.186-5.922 8.601.384 2.97 3.46 2.166 10.353 5.197 14.534 2.185 3.015 4.788 1.869 6.113 3.781 5.301 1.016 7.687-2.69 13.083-3.104 11.115-.851 7.818 9.452 10.86 15.635 3.973 8.075 4.569.83 10.719 3.287 5.07 2.025 3.71 8.597 11.484 9.228 1.064.086 15.136.173 15.587-.211 3.399-2.905-7.399-14.145 4.563-14.368z" transform="translate(-803 -1933) translate(804 1935)"/>
                </g>
                <g transform="translate(-803 -1933) translate(804 1935) translate(181 281)">
                    <circle cx="18" cy="18" r="5" fill="#EB2127"/>
                    <circle cx="18" cy="18" r="10" stroke="#EB2127" stroke-width="2" opacity=".75"/>
                    <circle cx="18" cy="18" r="17.5" stroke="#EB2127" opacity=".5"/>
                </g>
                <g transform="translate(-803 -1933) translate(804 1935) translate(80 70)">
                    <circle cx="18" cy="18" r="5" fill="#EB2127"/>
                    <circle cx="18" cy="18" r="10" stroke="#EB2127" stroke-width="2" opacity=".75"/>
                    <circle cx="18" cy="18" r="17.5" stroke="#EB2127" opacity=".5"/>
                </g>
                <g transform="translate(-803 -1933) translate(804 1935) translate(80 185)">
                    <circle cx="18" cy="18" r="5" fill="#EB2127"/>
                    <circle cx="18" cy="18" r="10" stroke="#EB2127" stroke-width="2" opacity=".75"/>
                    <circle cx="18" cy="18" r="17.5" stroke="#EB2127" opacity=".5"/>
                </g>
                <g transform="translate(-803 -1933) translate(804 1935) translate(209 164)">
                    <circle cx="18" cy="18" r="5" fill="#EB2127"/>
                    <circle cx="18" cy="18" r="10" stroke="#EB2127" stroke-width="2" opacity=".75"/>
                    <circle cx="18" cy="18" r="17.5" stroke="#EB2127" opacity=".5"/>
                </g>
                <g transform="translate(-803 -1933) translate(804 1935) translate(330 182)">
                    <circle cx="18" cy="18" r="5" fill="#EB2127"/>
                    <circle cx="18" cy="18" r="10" stroke="#EB2127" stroke-width="2" opacity=".75"/>
                    <circle cx="18" cy="18" r="17.5" stroke="#EB2127" opacity=".5"/>
                </g>
                <g transform="translate(-803 -1933) translate(804 1935) translate(348 393)">
                    <circle cx="18" cy="18" r="5" fill="#EB2127"/>
                    <circle cx="18" cy="18" r="10" stroke="#EB2127" stroke-width="2" opacity=".75"/>
                    <circle cx="18" cy="18" r="17.5" stroke="#EB2127" opacity=".5"/>
                </g>
                <g transform="translate(-803 -1933) translate(804 1935) translate(191 410)">
                    <circle cx="18" cy="18" r="5" fill="#EB2127"/>
                    <circle cx="18" cy="18" r="10" stroke="#EB2127" stroke-width="2" opacity=".75"/>
                    <circle cx="18" cy="18" r="17.5" stroke="#EB2127" opacity=".5"/>
                </g>
                <g transform="translate(-803 -1933) translate(804 1935) translate(98 369)">
                    <circle cx="18" cy="18" r="5" fill="#EB2127"/>
                    <circle cx="18" cy="18" r="10" stroke="#EB2127" stroke-width="2" opacity=".75"/>
                    <circle cx="18" cy="18" r="17.5" stroke="#EB2127" opacity=".5"/>
                </g>
            </g>
        </g>
    </g>
</svg>
