<svg xmlns="http://www.w3.org/2000/svg" xmlns:xlink="http://www.w3.org/1999/xlink" width="95" height="96" viewBox="0 0 95 96">
    <defs>
        <path id="2h7xyh3dca" d="M0 0L94.469 0 94.469 96 0 96z"/>
    </defs>
    <g fill="none" fill-rule="evenodd">
        <g>
            <g>
                <g transform="translate(-673.000000, -2504.000000) translate(673.000000, 2504.000000)">
                    <mask id="gighhtejcb" fill="#fff">
                        <use xlink:href="#2h7xyh3dca"/>
                    </mask>
                    <path fill="#F5F5F5" d="M89.26 44.922c-3.763 3.762-9.037 7.615-12.59 9.037-3.555 1.42-14.825 10.052-15.23 17.16-.408 7.108-.61 21.018-16.045 24.065-15.434 3.046-21.83-3.148-23.963-6.804-2.132-3.655-3.859-10.255-5.788-12.692-1.929-2.437-8.936-7.615-10.357-9.14-1.422-1.522-6.6-7.106-4.975-13.91C1.937 45.837 6.1 41.978 12.7 40.557c6.601-1.422 19.497-7.108 23.66-19.7C40.522 8.267 43.872 3.19 54.33.855c10.46-2.336 20.917 0 28.838 8.529 7.92 8.529 11.677 16.043 11.271 20.917-.407 4.874-1.32 10.763-5.179 14.622" mask="url(#gighhtejcb)"/>
                </g>
                <path fill="#000" d="M41.566 36.785c1.142 0 2.01.345 2.605 1.035.595.69.893 1.623.893 2.797v1.213h1.095v1.998h-1.095v4.736c0 .62.19 1.092.57 1.416.38.325.866.488 1.453.488 1.078 0 1.979-.424 2.7-1.273.722-.849 1.084-1.852 1.084-3.01 0-1.618-.826-2.428-2.476-2.428-.35 0-.674.032-.975.095V41.83c.396-.063.824-.095 1.285-.095 1.443 0 2.546.401 3.307 1.201.762.802 1.143 1.885 1.143 3.248 0 1.698-.564 3.17-1.69 4.414-1.127 1.247-2.586 1.87-4.378 1.87-1.207 0-2.222-.35-3.046-1.049-.826-.697-1.238-1.649-1.238-2.855v-4.736h-2.047V41.83h2.047v-.952c0-.666-.14-1.166-.416-1.499-.278-.334-.726-.5-1.344-.5-.381 0-.652.016-.81.048v-1.999c.477-.096.92-.143 1.333-.143" transform="translate(-673.000000, -2504.000000) translate(673.000000, 2504.000000)"/>
                <path fill="#000" d="M41.167 43.42h1.637c.226 0 .41.183.41.41v4.735c0 1.09.357 1.92 1.092 2.541.755.64 1.665.951 2.78.951 1.687 0 3.02-.567 4.076-1.733 1.05-1.162 1.583-2.555 1.583-4.139 0-1.267-.337-2.237-1.03-2.966-.678-.713-1.691-1.074-3.01-1.074-.305 0-.598.015-.875.044v1.187c.183-.019.372-.028.566-.028 1.887 0 2.884.981 2.884 2.837 0 1.253-.396 2.355-1.18 3.276-.8.94-1.813 1.417-3.013 1.417-.685 0-1.263-.197-1.718-.586-.474-.405-.715-.986-.715-1.727V43.83c0-.226.184-.41.41-.41h.685V42.24h-.685c-.226 0-.41-.183-.41-.41v-1.213c0-1.068-.266-1.919-.793-2.529-.663-.769-1.732-1.047-3.217-.817v1.206c.118-.005.25-.007.399-.007.743 0 1.302.218 1.659.647.34.408.512 1.001.512 1.761v.952c0 .227-.184.41-.41.41h-1.637v1.18zm5.92 9.457c-1.301 0-2.414-.385-3.311-1.145-.917-.775-1.382-1.84-1.382-3.167V44.24h-1.637c-.227 0-.41-.184-.41-.41V41.83c0-.226.183-.41.41-.41h1.637v-.542c0-.564-.11-.98-.322-1.236-.194-.234-.541-.352-1.03-.352-.438 0-.638.021-.73.04-.12.023-.244-.008-.338-.086-.095-.078-.151-.194-.151-.317v-1.999c0-.196.139-.364.33-.403 1.943-.385 3.422-.024 4.329 1.028.659.762.992 1.794.992 3.064v.803h.685c.227 0 .41.184.41.41v2c0 .225-.183.41-.41.41h-.685v4.325c0 .497.139.858.427 1.104.307.262.695.39 1.186.39.962 0 1.743-.37 2.389-1.129.663-.78.985-1.678.985-2.745 0-1.395-.637-2.017-2.065-2.017-.317 0-.618.028-.892.086-.122.025-.247-.005-.343-.084-.096-.077-.151-.194-.151-.317V41.83c0-.2.146-.372.345-.404.418-.068.873-.1 1.35-.1 1.553 0 2.766.446 3.605 1.328.833.876 1.254 2.064 1.254 3.531 0 1.794-.603 3.371-1.794 4.69-1.203 1.328-2.78 2.002-4.683 2.002z" transform="translate(-673.000000, -2504.000000) translate(673.000000, 2504.000000)"/>
                <path fill="#000" d="M9.522 63.039c.01.077.016.156.016.236v3.223c0 2.896 2.355 5.25 5.25 5.25h63.895c2.896 0 5.25-2.354 5.25-5.25V24.99c0-2.894-2.354-5.25-5.25-5.25H14.788c-2.895 0-5.25 2.36-5.25 5.262v3.224c-.046 13.202-.086 33.149-.016 34.813zm69.16 12.215H14.789c-4.828 0-8.755-3.928-8.755-8.756l.01-3.223c-.036-.397-.04-.89-.045-1.506-.01-.965-.014-2.34-.017-3.99-.005-3.29-.001-7.67.006-12.051.016-8.757.046-17.51.046-17.51v-3.216c0-4.834 3.927-8.766 8.755-8.766h63.895c4.828 0 8.755 3.927 8.755 8.754v41.508c0 4.828-3.927 8.756-8.755 8.756zM54.2 12.056H36.495c-.968 0-1.752-.785-1.752-1.753 0-.968.784-1.752 1.752-1.752H54.2c.968 0 1.753.784 1.753 1.752s-.785 1.753-1.753 1.753M87.001 7.802h-9.378c-.968 0-1.752-.785-1.752-1.753 0-.968.784-1.752 1.752-1.752h9.378c.97 0 1.753.784 1.753 1.752s-.784 1.753-1.753 1.753M34.743 83.926H9.483c-.967 0-1.752-.785-1.752-1.753 0-.968.785-1.752 1.753-1.752h25.259c.968 0 1.752.784 1.752 1.752s-.784 1.753-1.752 1.753" transform="translate(-673.000000, -2504.000000) translate(673.000000, 2504.000000)"/>
                <path fill="#000" d="M7.73 32.587c-.967 0-1.751-.785-1.751-1.753 0-.968.784-1.752 1.752-1.752 6.117 0 11.093-4.976 11.093-11.093 0-.968.784-1.753 1.753-1.753.967 0 1.752.785 1.752 1.753 0 8.049-6.548 14.598-14.598 14.598M85.687 32.587c-8.05 0-14.599-6.55-14.599-14.598 0-.968.786-1.753 1.753-1.753.968 0 1.753.785 1.753 1.753 0 6.117 4.976 11.093 11.093 11.093.968 0 1.752.784 1.752 1.752s-.784 1.753-1.752 1.753M72.841 75.254c-.968 0-1.753-.785-1.753-1.752 0-8.05 6.55-14.599 14.6-14.599.966 0 1.751.785 1.751 1.753 0 .968-.785 1.753-1.752 1.753-6.117 0-11.093 4.976-11.093 11.093 0 .967-.785 1.752-1.753 1.752M20.577 75.254c-.97 0-1.753-.785-1.753-1.752 0-6.117-4.976-11.093-11.093-11.093-.967 0-1.752-.785-1.752-1.753 0-.968.785-1.753 1.752-1.753 8.05 0 14.598 6.55 14.598 14.6 0 .966-.784 1.751-1.752 1.751" transform="translate(-673.000000, -2504.000000) translate(673.000000, 2504.000000)"/>
                <path fill="#EB2127" d="M90.013 73.608c0 9.266-7.512 16.777-16.778 16.777-9.266 0-16.778-7.511-16.778-16.777 0-9.266 7.512-16.778 16.778-16.778 9.266 0 16.778 7.512 16.778 16.778" transform="translate(-673.000000, -2504.000000) translate(673.000000, 2504.000000)"/>
                <path fill="#FFF" d="M68.329 66.495c1.092 0 1.924.33 2.493.99.57.66.854 1.553.854 2.677v1.16h1.048v1.913h-1.048v4.532c0 .592.182 1.044.547 1.355.364.31.827.467 1.388.467 1.032 0 1.895-.406 2.585-1.22.69-.811 1.036-1.771 1.036-2.88 0-1.548-.79-2.322-2.368-2.322-.334 0-.645.03-.933.09v-1.934c.378-.061.789-.092 1.229-.092 1.382 0 2.437.384 3.165 1.15.73.767 1.094 1.803 1.094 3.109 0 1.624-.54 3.032-1.617 4.224-1.078 1.192-2.475 1.788-4.191 1.788-1.153 0-2.125-.334-2.914-1.003-.79-.668-1.184-1.578-1.184-2.732v-4.532h-1.958v-1.912h1.958v-.912c0-.637-.134-1.115-.4-1.434-.264-.32-.693-.478-1.286-.478-.364 0-.622.015-.774.045V66.63c.456-.091.88-.136 1.276-.136" transform="translate(-673.000000, -2504.000000) translate(673.000000, 2504.000000)"/>
            </g>
        </g>
    </g>
</svg>
