<?xml version="1.0" encoding="UTF-8"?>
<svg width="95px" height="97px" viewBox="0 0 95 97" version="1.1" xmlns="http://www.w3.org/2000/svg" xmlns:xlink="http://www.w3.org/1999/xlink">
    <title>Illustration/96px/Delivery guaranteed Copy</title>
    <defs>
        <polygon id="path-1" points="2.40423972e-05 0.145101052 93.8364881 0.145101052 93.8364881 95.5025907 2.40423972e-05 95.5025907"></polygon>
    </defs>
    <g id="Marketing" stroke="none" stroke-width="1" fill="none" fill-rule="evenodd">
        <g id="redx-homepage-redesign-concept" transform="translate(-672.000000, -853.000000)">
            <g id="../Illustration/96px/Delivery-guaranteed-Copy" transform="translate(672.000000, 853.000000)">
                <g id="Group-16">
                    <g id="Group-3" transform="translate(0.000000, 0.352663)">
                        <mask id="mask-2" fill="white">
                            <use xlink:href="#path-1"></use>
                        </mask>
                        <g id="Clip-2"></g>
                        <path d="M88.6632622,44.7657948 C84.9262259,48.5033285 79.6870135,52.3303959 76.1564021,53.7420435 C72.6267855,55.1541886 61.4310964,63.7275358 61.0276974,70.7877637 C60.6242984,77.8479917 60.4223503,91.6655254 45.0916974,94.6917637 C29.7610446,97.7175047 23.4071378,91.5645513 21.2886715,87.9339606 C19.1707026,84.3028725 17.4561326,77.7470176 15.5396145,75.3261264 C13.6235938,72.9057326 6.66384249,67.7620228 5.25219482,66.2489036 C3.84004974,64.7357845 -1.3036601,59.1886756 0.309935751,52.4313699 C1.92353161,45.6735668 6.05899275,41.841028 12.6148477,40.4288829 C19.1707026,39.0167378 31.9799876,33.3686549 36.1149513,20.8617948 C40.2504124,8.35543212 43.5790756,3.31219896 53.9674694,0.992779275 C64.3558632,-1.32713782 74.7447544,0.992779275 82.6117803,9.46465492 C90.4788062,17.937028 94.210371,25.4006549 93.806972,30.2419399 C93.4035731,35.0832249 92.4962984,40.933256 88.6632622,44.7657948" id="Fill-1" fill="#F5F5F5" mask="url(#mask-2)"></path>
                    </g>
                    <path d="M64.8123855,88.0370238 L17.7047378,88.0370238 L17.7047378,10.1302881 C17.7047378,8.83702383 18.7532767,7.78848497 20.0465409,7.78848497 L62.4705824,7.78848497 C63.7638466,7.78848497 64.8123855,8.83702383 64.8123855,10.1302881 L64.8123855,88.0370238 Z" id="Fill-4" fill="#E6E6E6"></path>
                    <path d="M19.9855585,9.36353161 C19.6542839,9.36353161 19.3846881,9.63312746 19.3846881,9.96440207 L19.3846881,85.8611067 C19.3846881,86.1923813 19.6542839,86.4619772 19.9855585,86.4619772 L62.058429,86.4619772 C62.3897036,86.4619772 62.6592995,86.1923813 62.6592995,85.8611067 L62.6592995,9.96440207 C62.6592995,9.63312746 62.3897036,9.36353161 62.058429,9.36353161 L19.9855585,9.36353161 Z M62.058429,89.9438425 L19.9855585,89.9438425 C17.7342839,89.9438425 15.9028228,88.1123813 15.9028228,85.8611067 L15.9028228,9.96440207 C15.9028228,7.71312746 17.7342839,5.88166632 19.9855585,5.88166632 L62.058429,5.88166632 C64.3097036,5.88166632 66.1411648,7.71312746 66.1411648,9.96440207 L66.1411648,85.8611067 C66.1411648,88.1123813 64.3097036,89.9438425 62.058429,89.9438425 L62.058429,89.9438425 Z" id="Fill-6" fill="#000000"></path>
                    <path d="M69.6545658,89.9438425 L12.4524933,89.9438425 C11.491001,89.9438425 10.7115606,89.1644021 10.7115606,88.2029098 C10.7115606,87.2414176 11.491001,86.4619772 12.4524933,86.4619772 L69.6545658,86.4619772 C70.616058,86.4619772 71.3954984,87.2414176 71.3954984,88.2029098 C71.3954984,89.1644021 70.616058,89.9438425 69.6545658,89.9438425" id="Fill-8" fill="#000000"></path>
                    <path d="M82.9918508,72.7737202 C82.9918508,72.8547979 82.9838922,72.9363731 82.9674777,73.0094922 L82.9595192,73.0343627 C82.9515606,73.0497824 82.9515606,73.0751503 82.9431047,73.0900725 L82.9351461,73.1074819 C82.9271876,73.1318549 82.919229,73.156228 82.9028145,73.1801036 C82.8938611,73.1880622 82.8938611,73.2054715 82.8868974,73.2134301 L82.877944,73.2203938 C82.8694881,73.2378031 82.8615295,73.2537202 82.853571,73.2701347 L82.8456124,73.2865492 C82.8212394,73.3278342 82.7884104,73.3681244 82.7560788,73.4084145 C82.7312083,73.4327876 82.7147938,73.4581554 82.6988767,73.4666114 C82.6909181,73.4735751 82.6745036,73.490487 82.6665451,73.498943 L82.6580891,73.5069016 C82.6501306,73.5148601 82.642172,73.5228187 82.6342135,73.5307772 L82.6257575,73.5392332 C82.6168041,73.5481865 82.6003896,73.5551503 82.5924311,73.5631088 C82.4944415,73.6372228 82.3810321,73.6939275 82.266628,73.7262591 L82.233799,73.7342176 C82.1850528,73.7516269 82.1363067,73.7665492 82.0960166,73.7839585 C82.0467731,73.7919171 82.013944,73.7998756 82.0059855,73.7998756 L48.828286,73.7998756 C48.2900891,73.7998756 47.8100891,73.3188808 47.8100891,72.7737202 L47.8100891,44.133886 C47.8100891,43.6041451 48.2662135,43.1723938 48.828286,43.1723938 L81.9980269,43.1644352 L82.1363067,43.1644352 C82.6168041,43.2290984 82.9918508,43.6444352 82.9918508,44.1418446 L82.9918508,72.7737202 Z" id="Fill-10" fill="#EB2127"></path>
                    <polygon id="Fill-12" fill="#8D1417" points="69.7517596 43.164286 69.7517596 53.3373016 65.4009202 51.058172 61.0495834 53.3373016 61.0495834 43.164286"></polygon>
                    <path d="M23.2711461,54.0575005 C22.7220062,54.0575005 22.2763275,53.6118218 22.2763275,53.0626819 L22.2763275,42.7628269 C22.2763275,42.2131896 22.7220062,41.7680083 23.2711461,41.7680083 C23.820286,41.7680083 24.2659648,42.2131896 24.2659648,42.7628269 L24.2659648,53.0626819 C24.2659648,53.6118218 23.820286,54.0575005 23.2711461,54.0575005" id="Fill-14" fill="#000000"></path>
                </g>
            </g>
        </g>
    </g>
</svg>