<svg xmlns="http://www.w3.org/2000/svg" width="32" height="20" viewBox="0 0 32 20">
    <g fill="none" fill-rule="evenodd">
        <g fill="#F82501">
            <g>
                <path d="M6.999 0C3.139 0 0 3.239 0 7.222c0 3.54 2.46 6.522 5.798 7.117.183 2.544-1.852 4.689-1.873 4.711-.173.183-.21.456-.087.672.103.178.28.278.469.278.043 0 .091-.006.14-.022 9.771-2.8 9.566-12.25 9.55-12.767C13.987 3.233 10.853 0 7 0" transform="translate(-158 -4184) translate(158 4184) rotate(180 7 10)"/>
                <path d="M31.997 7.211C31.987 3.233 28.853 0 25 0 21.139 0 18 3.239 18 7.222c0 3.54 2.46 6.522 5.798 7.117.183 2.544-1.852 4.689-1.873 4.711-.173.183-.21.456-.087.672.103.178.28.278.469.278.043 0 .091-.006.14-.022 9.771-2.8 9.566-12.25 9.55-12.767" transform="translate(-158 -4184) translate(158 4184) rotate(180 25 10)"/>
            </g>
        </g>
    </g>
</svg>
