<?xml version="1.0" encoding="UTF-8"?>
<svg width="95px" height="98px" viewBox="0 0 95 98" version="1.1" xmlns="http://www.w3.org/2000/svg" xmlns:xlink="http://www.w3.org/1999/xlink">
    <title>Illustration/96px/Delivery guaranteed</title>
    <defs>
        <polygon id="path-1" points="0 0.145856787 94.3252697 0.145856787 94.3252697 96 0 96"></polygon>
    </defs>
    <g id="Marketing" stroke="none" stroke-width="1" fill="none" fill-rule="evenodd">
        <g id="redx-homepage-redesign-concept" transform="translate(-258.000000, -853.000000)">
            <g id="../Illustration/96px/Delivery-guaranteed" transform="translate(258.000000, 853.000000)">
                <g id="Group-30">
                    <g id="Group-3" transform="translate(0.000000, 0.354500)">
                        <mask id="mask-2" fill="white">
                            <use xlink:href="#path-1"></use>
                        </mask>
                        <g id="Clip-2"></g>
                        <path d="M89.1251,44.99895 C85.3681,48.75595 80.1016,52.60295 76.5531,54.02195 C73.0046,55.44145 61.7511,64.05945 61.3456,71.15645 C60.9401,78.25345 60.7371,92.14295 45.3266,95.18495 C29.9161,98.22645 23.5291,92.04145 21.3996,88.39195 C19.2706,84.74195 17.5471,78.15195 15.6206,75.71845 C13.6946,73.28545 6.6986,68.11495 5.2796,66.59395 C3.8601,65.07295 -1.3109,59.49695 0.3116,52.70445 C1.9336,45.91145 6.0906,42.05895 12.6806,40.63945 C19.2706,39.21995 32.1466,33.54245 36.3031,20.97045 C40.4601,8.39895 43.8056,3.32945 54.2486,0.99795 C64.6911,-1.33405 75.1341,0.99795 83.0416,9.51395 C90.9501,18.03045 94.7011,25.53295 94.2956,30.39945 C93.8901,35.26595 92.9776,41.14645 89.1251,44.99895" id="Fill-1" fill="#F5F5F5" mask="url(#mask-2)"></path>
                    </g>
                    <path d="M71.50475,53.99555 C71.50475,71.48455 57.32725,85.66205 39.83825,85.66205 C22.34925,85.66205 8.17125,71.48455 8.17125,53.99555 C8.17125,36.50655 22.34925,22.32905 39.83825,22.32905 C57.32725,22.32905 71.50475,36.50655 71.50475,53.99555" id="Fill-4" fill="#E6E6E6"></path>
                    <path d="M39.83825,24.07905 C23.34225,24.07905 9.92175,37.49955 9.92175,53.99555 C9.92175,70.49155 23.34225,83.91255 39.83825,83.91255 C56.33425,83.91255 69.75475,70.49155 69.75475,53.99555 C69.75475,37.49955 56.33425,24.07905 39.83825,24.07905 M39.83825,87.41255 C21.41225,87.41255 6.42175,72.42155 6.42175,53.99555 C6.42175,35.56955 21.41225,20.57905 39.83825,20.57905 C58.26425,20.57905 73.25475,35.56955 73.25475,53.99555 C73.25475,72.42155 58.26425,87.41255 39.83825,87.41255" id="Fill-6" fill="#000000"></path>
                    <path d="M39.83825,22.64155 C38.87175,22.64155 38.08825,21.85805 38.08825,20.89155 L38.08825,16.16205 C38.08825,15.19555 38.87175,14.41205 39.83825,14.41205 C40.80475,14.41205 41.58825,15.19555 41.58825,16.16205 L41.58825,20.89155 C41.58825,21.85805 40.80475,22.64155 39.83825,22.64155" id="Fill-8" fill="#000000"></path>
                    <path d="M42.27575,17.76655 L37.40075,17.76655 C36.43425,17.76655 35.65075,16.98305 35.65075,16.01655 C35.65075,15.05005 36.43425,14.26655 37.40075,14.26655 L42.27575,14.26655 C43.24225,14.26655 44.02575,15.05005 44.02575,16.01655 C44.02575,16.98305 43.24225,17.76655 42.27575,17.76655" id="Fill-10" fill="#000000"></path>
                    <path d="M62.94785,33.0109 C62.49985,33.0109 62.05185,32.8399 61.71035,32.4984 C61.02685,31.8149 61.02685,30.7069 61.71035,30.0234 L65.05435,26.6789 C65.73835,25.9959 66.84585,25.9959 67.52985,26.6789 C68.21285,27.3629 68.21285,28.4704 67.52985,29.1544 L64.18535,32.4984 C63.84385,32.8399 63.39585,33.0109 62.94785,33.0109" id="Fill-12" fill="#000000"></path>
                    <path d="M68.1185,31.2873 C67.6705,31.2873 67.2225,31.1163 66.881,30.7748 L63.434,27.3278 C62.7505,26.6443 62.7505,25.5363 63.434,24.8528 C64.1175,24.1698 65.2255,24.1698 65.909,24.8528 L69.356,28.2998 C70.0395,28.9833 70.0395,30.0913 69.356,30.7748 C69.0145,31.1163 68.5665,31.2873 68.1185,31.2873" id="Fill-14" fill="#000000"></path>
                    <path d="M39.83825,7.75335 C36.27925,7.75335 33.38375,10.64885 33.38375,14.20785 C33.38375,17.76685 36.27925,20.66235 39.83825,20.66235 C43.39725,20.66235 46.29275,17.76685 46.29275,14.20785 C46.29275,10.64885 43.39725,7.75335 39.83825,7.75335 M39.83825,22.66235 C35.17625,22.66235 31.38375,18.86935 31.38375,14.20785 C31.38375,9.54585 35.17625,5.75335 39.83825,5.75335 C44.49975,5.75335 48.29275,9.54585 48.29275,14.20785 C48.29275,18.86935 44.49975,22.66235 39.83825,22.66235" id="Fill-16" fill="#000000"></path>
                    <path d="M39.83825,28.1623 C39.28625,28.1623 38.83825,27.7143 38.83825,27.1623 L38.83825,22.3288 C38.83825,21.7768 39.28625,21.3288 39.83825,21.3288 C40.39025,21.3288 40.83825,21.7768 40.83825,22.3288 L40.83825,27.1623 C40.83825,27.7143 40.39025,28.1623 39.83825,28.1623" id="Fill-18" fill="#000000"></path>
                    <path d="M13.0675,54.9748 L8.234,54.9748 C7.682,54.9748 7.234,54.5268 7.234,53.9748 C7.234,53.4228 7.682,52.9748 8.234,52.9748 L13.0675,52.9748 C13.6195,52.9748 14.0675,53.4228 14.0675,53.9748 C14.0675,54.5268 13.6195,54.9748 13.0675,54.9748" id="Fill-20" fill="#000000"></path>
                    <path d="M39.87975,86.5788 C39.32775,86.5788 38.87975,86.1308 38.87975,85.5788 L38.87975,80.7453 C38.87975,80.1933 39.32775,79.7453 39.87975,79.7453 C40.43175,79.7453 40.87975,80.1933 40.87975,80.7453 L40.87975,85.5788 C40.87975,86.1308 40.43175,86.5788 39.87975,86.5788" id="Fill-22" fill="#000000"></path>
                    <path d="M71.484,54.93305 L66.6505,54.93305 C66.0985,54.93305 65.6505,54.48505 65.6505,53.93305 C65.6505,53.38105 66.0985,52.93305 66.6505,52.93305 L71.484,52.93305 C72.036,52.93305 72.484,53.38105 72.484,53.93305 C72.484,54.48505 72.036,54.93305 71.484,54.93305" id="Fill-24" fill="#000000"></path>
                    <path d="M89.52015,89.486 C89.52015,89.5675 89.51215,89.6495 89.49565,89.723 L89.48765,89.748 C89.47965,89.7635 89.47965,89.789 89.47115,89.804 L89.46315,89.8215 C89.45515,89.846 89.44715,89.8705 89.43065,89.8945 C89.42165,89.9025 89.42165,89.92 89.41465,89.928 L89.40565,89.935 C89.39715,89.9525 89.38915,89.969 89.38115,89.985 L89.37315,90.0015 C89.34865,90.043 89.31565,90.0835 89.28315,90.1245 C89.25815,90.1485 89.24165,90.174 89.22565,90.1825 C89.21765,90.1895 89.20115,90.2065 89.19315,90.215 L89.18465,90.223 C89.17665,90.231 89.16865,90.239 89.16015,90.247 L89.15215,90.2555 C89.14315,90.2645 89.12665,90.2715 89.11865,90.28 C89.02015,90.354 88.90615,90.411 88.79115,90.4435 L88.75815,90.4515 C88.70915,90.469 88.66015,90.484 88.61965,90.5015 C88.57015,90.5095 88.53715,90.5175 88.52915,90.5175 L55.17865,90.5175 C54.63765,90.5175 54.15515,90.034 54.15515,89.486 L54.15515,60.697 C54.15515,60.1645 54.61365,59.7305 55.17865,59.7305 L88.52115,59.7225 L88.66015,59.7225 C89.14315,59.7875 89.52015,60.205 89.52015,60.705 L89.52015,89.486 Z" id="Fill-26" fill="#EB2127"></path>
                    <polygon id="Fill-28" fill="#8D1417" points="76.21105 59.72235 76.21105 69.94835 71.83755 67.65785 67.46355 69.94835 67.46355 59.72235"></polygon>
                </g>
            </g>
        </g>
    </g>
</svg>