<?xml version="1.0" encoding="UTF-8"?>
<svg width="32px" height="32px" viewBox="0 0 32 32" version="1.1" xmlns="http://www.w3.org/2000/svg" xmlns:xlink="http://www.w3.org/1999/xlink">
    <title>Group 6</title>
    <defs>
        <polygon id="path-1" points="0 32 32 32 32 0 0 0"></polygon>
    </defs>
    <g id="Symbols" stroke="none" stroke-width="1" fill="none" fill-rule="evenodd">
        <g id="UI-Blocks/Web/Marketing/footer/Desktop" transform="translate(-1109.000000, -129.000000)">
            <g id="Group-6" transform="translate(1109.000000, 129.000000)">
                <path d="M16.00005,-0.0001 C24.83655,-0.0001 32.00005,7.1634 32.00005,15.9999 C32.00005,24.8364 24.83655,31.9999 16.00005,31.9999 C7.16355,31.9999 5e-05,24.8364 5e-05,15.9999 C5e-05,7.1634 7.16355,-0.0001 16.00005,-0.0001" id="Fill-1" fill="#C0C0C0"></path>
                <mask id="mask-2" fill="white">
                    <use xlink:href="#path-1"></use>
                </mask>
                <g id="Clip-5"></g>
                <path d="M8.9295,22.6635 L12.201,22.6635 L12.201,12.821 L8.9295,12.821 L8.9295,22.6635 Z M10.587,8.0765 C9.4675,8.0765 8.735,8.8115 8.735,9.7765 C8.735,10.722 9.4465,11.478 10.544,11.478 L10.565,11.478 C11.7065,11.478 12.4165,10.722 12.4165,9.7765 C12.3945,8.8115 11.7065,8.0765 10.587,8.0765 L10.587,8.0765 Z M24,17.019 L24,22.6635 L20.7275,22.6635 L20.7275,17.3975 C20.7275,16.075 20.255,15.172 19.07,15.172 C18.166,15.172 17.6285,15.78 17.3915,16.3685 C17.3055,16.579 17.283,16.871 17.283,17.166 L17.283,22.663 L14.0105,22.663 C14.0105,22.663 14.0545,13.744 14.0105,12.821 L17.2835,12.821 L17.2835,14.2155 C17.277,14.2265 17.2675,14.2375 17.262,14.248 L17.2835,14.248 L17.2835,14.2155 C17.7185,13.5465 18.494,12.5895 20.2325,12.5895 C22.386,12.5895 24,13.9965 24,17.019 L24,17.019 Z" id="Fill-4" fill="#F1F2F2" mask="url(#mask-2)"></path>
            </g>
        </g>
    </g>
</svg>