<svg xmlns="http://www.w3.org/2000/svg" width="107" height="41" viewBox="0 0 107 41">
    <g fill="none" fill-rule="evenodd">
        <g fill-rule="nonzero">
            <g>
                <g>
                    <g>
                        <g fill="#EB2127">
                            <path d="M16.802 13.348L9.558 26.553 0.101 26.553 7.385 13.327 0.121 0.102 9.558 0.102 16.822 13.327z" transform="translate(-135 -62) translate(0 40) translate(135 22) translate(0 7.193) translate(77.673)"/>
                            <path d="M20.122 13.327L15.877 5.607 18.895 0.102 28.353 0.102 21.088 13.327 28.353 26.553 18.915 26.553 15.877 21.027 20.102 13.348z" transform="translate(-135 -62) translate(0 40) translate(135 22) translate(0 7.193) translate(77.673)"/>
                        </g>
                        <g fill="#010101">
                            <path d="M11.39.081c7.565 0 11.831 3.596 11.831 10.036 0 3.942-1.55 6.725-4.306 8.33l5.212 7.212v.914h-8.552l-4.83-6.663H8.17v6.643H.12V.081h11.27zm.502 13.368c2.194 0 3.401-1.219 3.401-3.352 0-2.092-1.368-3.25-3.823-3.25H8.15v6.602h3.742zM26.34 26.553L26.34.081 46.241.081 46.241 6.847 34.289 6.847 34.289 10.239 44.43 10.239 44.43 16.578 34.289 16.578 34.289 19.747 46.583 19.747 46.583 26.553zM59.965.081c9.377 0 14.67 4.775 14.67 13.246 0 8.472-5.293 13.246-14.67 13.246H49.723V.081h10.242zm0 19.565c4.165 0 6.54-2.255 6.54-6.339 0-4.084-2.375-6.38-6.54-6.38h-2.193v12.719h2.193z" transform="translate(-135 -62) translate(0 40) translate(135 22) translate(0 7.193)"/>
                        </g>
                    </g>
                </g>
            </g>
        </g>
    </g>
</svg>
