<svg xmlns="http://www.w3.org/2000/svg" xmlns:xlink="http://www.w3.org/1999/xlink" width="95" height="96" viewBox="0 0 95 96">
    <defs>
        <path id="5lejipueta" d="M0 0L94.469 0 94.469 96 0 96z"/>
    </defs>
    <g fill="none" fill-rule="evenodd">
        <g>
            <g>
                <g transform="translate(-274.000000, -2504.000000) translate(274.000000, 2504.000000)">
                    <mask id="ngrj7hzg0b" fill="#fff">
                        <use xlink:href="#5lejipueta"/>
                    </mask>
                    <path fill="#F5F5F5" d="M89.26 44.922c-3.762 3.762-9.036 7.615-12.591 9.037-3.554 1.42-14.824 10.052-15.23 17.16-.407 7.108-.61 21.019-16.043 24.065-15.435 3.046-21.831-3.148-23.964-6.804-2.132-3.655-3.86-10.255-5.787-12.692-1.93-2.436-8.936-7.615-10.358-9.138-1.422-1.524-6.6-7.108-4.975-13.911S6.1 41.977 12.699 40.556c6.6-1.422 19.497-7.108 23.66-19.7C40.522 8.267 43.872 3.19 54.33.855c10.458-2.336 20.917 0 28.837 8.529 7.92 8.529 11.677 16.043 11.27 20.917-.406 4.874-1.32 10.764-5.177 14.622" mask="url(#ngrj7hzg0b)"/>
                </g>
                <path fill="#E6E6E6" d="M66.2 76.258H20.061c-7.152 0-12.95-5.798-12.95-12.95v-34.86c0-7.153 5.798-12.952 12.95-12.952h46.14c7.152 0 12.95 5.8 12.95 12.951v34.86c0 7.153-5.798 12.951-12.95 12.951" transform="translate(-274.000000, -2504.000000) translate(274.000000, 2504.000000)"/>
                <path fill="#000" d="M64.514 78.011H13.187c-4.317 0-7.828-3.512-7.828-7.829v-48.61c0-4.317 3.51-7.829 7.828-7.829h7.128c.968 0 1.752.785 1.752 1.753 0 .968-.784 1.753-1.752 1.753h-7.128c-2.384 0-4.323 1.94-4.323 4.323v48.61c0 2.384 1.939 4.324 4.323 4.324h51.327c.968 0 1.753.784 1.753 1.752s-.785 1.753-1.753 1.753M79.558 64.584c-.968 0-1.752-.785-1.752-1.753V21.573c0-2.384-1.935-4.323-4.312-4.323h-6.582c-.967 0-1.752-.785-1.752-1.753 0-.968.785-1.753 1.752-1.753h6.582c4.31 0 7.817 3.512 7.817 7.829V62.83c0 .968-.785 1.753-1.753 1.753M58.47 17.25H28.23c-.97 0-1.753-.786-1.753-1.754s.784-1.752 1.753-1.752h30.24c.969 0 1.753.784 1.753 1.752s-.784 1.753-1.753 1.753" transform="translate(-274.000000, -2504.000000) translate(274.000000, 2504.000000)"/>
                <path fill="#000" d="M79.327 32.07H7.543c-.968 0-1.752-.786-1.752-1.753 0-.969.784-1.753 1.752-1.753h71.784c.968 0 1.753.784 1.753 1.753 0 .967-.785 1.752-1.753 1.752M61.077 9.957c-.307 0-.556.21-.556.469v8.82c0 .26.25.47.556.47h3.114c.306 0 .556-.21.556-.47v-8.82c0-.26-.25-.47-.556-.47h-3.114zm3.114 11.762h-3.114c-1.41 0-2.559-1.11-2.559-2.472v-8.821c0-1.363 1.148-2.472 2.56-2.472h3.113c1.411 0 2.56 1.109 2.56 2.472v8.82c0 1.364-1.149 2.473-2.56 2.473zM22.68 9.957c-.307 0-.556.21-.556.469v8.82c0 .26.249.47.556.47h3.114c.307 0 .556-.21.556-.47v-8.82c0-.26-.25-.47-.556-.47H22.68zm3.114 11.762H22.68c-1.411 0-2.56-1.11-2.56-2.472v-8.821c0-1.363 1.149-2.472 2.56-2.472h3.114c1.41 0 2.559 1.109 2.559 2.472v8.82c0 1.364-1.148 2.473-2.56 2.473z" transform="translate(-274.000000, -2504.000000) translate(274.000000, 2504.000000)"/>
                <path fill="#EB2127" d="M90.013 73.608c0 9.266-7.512 16.777-16.777 16.777-9.267 0-16.778-7.511-16.778-16.777 0-9.266 7.51-16.777 16.778-16.777 9.265 0 16.777 7.51 16.777 16.777" transform="translate(-274.000000, -2504.000000) translate(274.000000, 2504.000000)"/>
                <path fill="#FFF" d="M68.328 66.495c1.093 0 1.924.33 2.493.99.57.66.854 1.553.854 2.677v1.16h1.048v1.913h-1.048v4.532c0 .592.182 1.044.547 1.355.364.31.827.467 1.39.467 1.03 0 1.893-.406 2.583-1.218.692-.813 1.037-1.773 1.037-2.881 0-1.55-.79-2.323-2.369-2.323-.334 0-.645.03-.933.09v-1.934c.378-.061.79-.092 1.23-.092 1.381 0 2.437.384 3.164 1.15.73.767 1.094 1.803 1.094 3.109 0 1.625-.539 3.032-1.616 4.224-1.079 1.192-2.476 1.788-4.19 1.788-1.155 0-2.127-.334-2.916-1.003-.79-.667-1.184-1.578-1.184-2.732v-4.532h-1.958v-1.912h1.958v-.911c0-.638-.133-1.116-.399-1.435-.265-.32-.694-.478-1.286-.478-.364 0-.623.015-.774.045V66.63c.455-.091.88-.136 1.275-.136" transform="translate(-274.000000, -2504.000000) translate(274.000000, 2504.000000)"/>
            </g>
        </g>
    </g>
</svg>
