<?xml version="1.0" encoding="UTF-8"?>
<svg width="20px" height="20px" viewBox="0 0 20 20" version="1.1" xmlns="http://www.w3.org/2000/svg" xmlns:xlink="http://www.w3.org/1999/xlink">
    <title>Icon/Phone</title>
    <g id="Marketing" stroke="none" stroke-width="1" fill="none" fill-rule="evenodd">
        <g id="redx-homepage-redesign-concept-expanded" transform="translate(-856.000000, -31.000000)">
            <g id="UI-Blocks/Web/Marketing/Header/Desktop" transform="translate(0.000000, 15.000000)">
                <g id="Group-4" transform="translate(854.000000, 14.000000)">
                    <g id="Icon/Phone">
                        <rect id="Rectangle-48-Copy-13" x="0" y="0" width="24" height="24"></rect>
                        <g id="Icon/Regular/Phone-Call" stroke-width="1" fill-rule="evenodd" transform="translate(2.000000, 2.000000)" fill="#EB2127">
                            <path d="M16.8362654,11.922043 C16.399733,11.4695341 15.873194,11.2275986 15.3151526,11.2275986 C14.7616115,11.2275986 14.2305721,11.4650538 13.7760384,11.9175627 L12.353933,13.328853 C12.2369243,13.266129 12.1199156,13.2078853 12.0074073,13.1496416 C11.8453953,13.0689964 11.6923839,12.9928315 11.5618742,12.9121864 C10.2297755,12.0698925 9.01918568,10.9722222 7.85809958,9.55197133 C7.29555786,8.84408602 6.91752983,8.24820789 6.64300947,7.64336918 C7.01203683,7.30734767 7.3540622,6.9578853 7.6870869,6.6218638 C7.81309624,6.49641577 7.93910558,6.36648746 8.06511493,6.24103943 C9.01018501,5.30017921 9.01018501,4.08154122 8.06511493,3.140681 L6.83652382,1.91756272 C6.69701347,1.77867384 6.55300279,1.63530466 6.41799278,1.49193548 C6.14797276,1.21415771 5.86445173,0.927419355 5.57193004,0.658602151 C5.13539767,0.228494624 4.61335895,0 4.06431824,0 C3.51527752,0 2.98423814,0.228494624 2.53420477,0.658602151 C2.52970443,0.663082437 2.52970443,0.663082437 2.5252041,0.667562724 L0.995090629,2.20430108 C0.41904791,2.77777778 0.0905235474,3.47670251 0.0185182076,4.28763441 C-0.089489802,5.59587814 0.297538899,6.81451613 0.594560926,7.61200717 C1.32361499,9.56989247 2.41269576,11.3844086 4.03731623,13.328853 C6.00846241,15.672043 8.38013829,17.5224014 11.0893392,18.8261649 C12.124416,19.3145161 13.5060184,19.8924731 15.0496329,19.9910394 C15.1441399,19.9955197 15.2431472,20 15.3331539,20 C16.372731,20 17.2457958,19.6281362 17.9298465,18.8888889 C17.9343468,18.8799283 17.9433475,18.875448 17.9478478,18.8664875 C18.1818652,18.5842294 18.4518852,18.328853 18.7354062,18.0555556 C18.9289206,17.8718638 19.1269353,17.6792115 19.3204496,17.4775986 C19.7659826,17.016129 20,16.4784946 20,15.9274194 C20,15.3718638 19.7614823,14.8387097 19.3069486,14.390681 L16.8362654,11.922043 Z" id="Color"></path>
                        </g>
                    </g>
                </g>
            </g>
        </g>
    </g>
</svg>