<svg xmlns="http://www.w3.org/2000/svg" xmlns:xlink="http://www.w3.org/1999/xlink" width="95" height="96" viewBox="0 0 95 96">
    <defs>
        <path id="kfwo5arfea" d="M0 0L94.469 0 94.469 96 0 96z"/>
    </defs>
    <g fill="none" fill-rule="evenodd">
        <g>
            <g>
                <g transform="translate(-1076.000000, -2504.000000) translate(1076.000000, 2504.000000)">
                    <mask id="5nmpvjdweb" fill="#fff">
                        <use xlink:href="#kfwo5arfea"/>
                    </mask>
                    <path fill="#F5F5F5" d="M89.26 44.921c-3.762 3.763-9.036 7.616-12.59 9.037-3.554 1.422-14.825 10.053-15.231 17.16-.406 7.108-.61 21.02-16.043 24.065-15.434 3.047-21.831-3.148-23.963-6.803-2.132-3.655-3.86-10.255-5.788-12.692-1.93-2.437-8.936-7.616-10.357-9.139-1.422-1.523-6.6-7.107-4.976-13.91C1.937 45.834 6.1 41.976 12.7 40.554c6.6-1.422 19.496-7.108 23.659-19.698S43.873 3.19 54.33.853c10.459-2.335 20.917 0 28.837 8.53 7.92 8.53 11.678 16.043 11.272 20.916-.407 4.874-1.321 10.764-5.18 14.622" mask="url(#5nmpvjdweb)"/>
                </g>
                <path fill="#E6E6E6" d="M56.108 79.98c-3.962 2.615-12.196 7.267-15.194 8.733h-.027C29.977 83.377 8.314 69.56 8.314 54.04V19.09h.08c7.74 0 21.464-1.401 32.506-10.052 11.03 8.65 24.753 10.052 32.493 10.052h.093v43.298" transform="translate(-1076.000000, -2504.000000) translate(1076.000000, 2504.000000)"/>
                <path fill="#000" d="M36.647 57.761h-.026c-.475-.007-.925-.207-1.25-.55l-5.758-6.119c-.663-.706-.63-1.815.075-2.478.705-.664 1.814-.63 2.478.075l4.52 4.802 12.986-12.987c.685-.684 1.794-.684 2.48 0 .683.685.683 1.795 0 2.48L37.885 57.246c-.329.33-.774.514-1.239.514" transform="translate(-1076.000000, -2504.000000) translate(1076.000000, 2504.000000)"/>
                <path fill="#000" d="M40.914 90.466c-.268 0-.557-.061-.797-.178C36.683 88.608 6.562 73.32 6.562 54.04V19.09c0-.968.785-1.753 1.752-1.753h.079c7.124 0 20.678-1.257 31.427-9.68.634-.496 1.528-.496 2.162.002 10.735 8.42 24.288 9.678 31.41 9.678h.094c.968 0 1.753.785 1.753 1.753v43.298c0 .968-.785 1.753-1.753 1.753-.968 0-1.753-.785-1.753-1.753V20.822c-7.63-.195-20.272-1.843-30.833-9.584-10.567 7.737-23.203 9.387-30.833 9.583v33.22c0 13.633 19.018 26.786 30.828 32.72 3.313-1.703 10.552-5.804 14.248-8.243.808-.534 1.895-.311 2.428.497.533.808.31 1.895-.497 2.428-4.108 2.71-12.5 7.43-15.39 8.845-.24.117-.503.178-.77.178" transform="translate(-1076.000000, -2504.000000) translate(1076.000000, 2504.000000)"/>
                <path fill="#EB2127" d="M89.656 89.12c0 .083-.008.165-.024.238l-.008.026c-.009.015-.009.04-.017.056l-.008.017c-.008.024-.016.049-.033.073-.009.008-.009.026-.015.034l-.01.007-.025.05-.007.016c-.025.042-.057.083-.09.124-.026.024-.04.049-.058.057l-.032.033-.009.008-.024.025-.008.008c-.01.009-.026.016-.034.024-.099.075-.212.13-.327.164l-.035.008c-.048.017-.097.033-.137.05-.05.008-.083.016-.09.016H55.261c-.542 0-1.025-.484-1.025-1.033V60.288c0-.533.46-.968 1.025-.968l33.394-.008h.14c.482.065.86.484.86.985V89.12z" transform="translate(-1076.000000, -2504.000000) translate(1076.000000, 2504.000000)"/>
                <path fill="#8D1417" d="M76.327 59.312L76.327 69.554 71.947 67.259 67.566 69.554 67.566 59.312z" transform="translate(-1076.000000, -2504.000000) translate(1076.000000, 2504.000000)"/>
            </g>
        </g>
    </g>
</svg>
