<?xml version="1.0" encoding="UTF-8"?>
<svg width="95px" height="97px" viewBox="0 0 95 97" version="1.1" xmlns="http://www.w3.org/2000/svg" xmlns:xlink="http://www.w3.org/1999/xlink">
    <title>Illustration/96px/Delivery guaranteed Copy 2</title>
    <defs>
        <polygon id="path-1" points="0 0.145101052 93.8364383 0.145101052 93.8364383 95.5025907 0 95.5025907"></polygon>
    </defs>
    <g id="Marketing" stroke="none" stroke-width="1" fill="none" fill-rule="evenodd">
        <g id="redx-homepage-redesign-concept" transform="translate(-1082.000000, -852.000000)">
            <g id="../Illustration/96px/Delivery-guaranteed-Copy-2" transform="translate(1082.000000, 852.000000)">
                <g id="Group-20">
                    <g id="Group-3" transform="translate(0.000000, 0.352663)">
                        <mask id="mask-2" fill="white">
                            <use xlink:href="#path-1"></use>
                        </mask>
                        <g id="Clip-2"></g>
                        <path d="M88.6632124,44.7657948 C84.9261762,48.5033285 79.6869637,52.3303959 76.1563523,53.7420435 C72.6267358,55.1541886 61.4310466,63.7275358 61.0276477,70.7877637 C60.6242487,77.8479917 60.4223005,91.6655254 45.0916477,94.6917637 C29.7609948,97.7175047 23.4070881,91.5645513 21.2886218,87.9339606 C19.1706528,84.3028725 17.4560829,77.7470176 15.5395648,75.3261264 C13.623544,72.9057326 6.66379275,67.7620228 5.25214508,66.2489036 C3.84,64.7357845 -1.30370984,59.1886756 0.30988601,52.4313699 C1.92348187,45.6735668 6.05894301,41.841028 12.6147979,40.4288829 C19.1706528,39.0167378 31.9799378,33.3686549 36.1149016,20.8617948 C40.2503627,8.35543212 43.5790259,3.31219896 53.9674197,0.992779275 C64.3558135,-1.32713782 74.7447047,0.992779275 82.6117306,9.46465492 C90.4787565,17.937028 94.2103212,25.4006549 93.8069223,30.2419399 C93.4035233,35.0832249 92.4962487,40.933256 88.6632124,44.7657948" id="Fill-1" fill="#F5F5F5" mask="url(#mask-2)"></path>
                    </g>
                    <path d="M65.0899896,59.1615171 L65.0899896,82.8655585 C65.0899896,86.2996725 62.2796269,89.1110301 58.8445181,89.1110301 L21.0613057,89.1110301 C17.6261969,89.1110301 14.8158342,86.2996725 14.8158342,82.8655585 L14.8158342,14.8975585 C14.8158342,11.4624497 17.6261969,8.65208705 21.0613057,8.65208705 L58.8445181,8.65208705 C62.2796269,8.65208705 65.0899896,11.4624497 65.0899896,14.8975585 L65.0899896,18.2282114 C65.0899896,18.2282114 65.373513,59.4450404 65.0899896,59.1615171" id="Fill-4" fill="#E6E6E6"></path>
                    <path d="M19.1206632,10.3930694 C17.7070259,10.3930694 16.5570155,11.5430798 16.5570155,12.9567171 L16.5570155,84.8064995 C16.5570155,86.2201368 17.7070259,87.3701472 19.1206632,87.3701472 L60.7851606,87.3701472 C62.1987979,87.3701472 63.3488083,86.2201368 63.3488083,84.8064995 L63.3488083,59.1615668 C63.3488083,59.0277637 63.364228,58.8969451 63.3935751,58.7701057 C63.5492642,56.4586446 63.4532642,33.4355565 63.3488083,18.2397016 L63.3488083,12.9567171 C63.3488083,11.5430798 62.1987979,10.3930694 60.7851606,10.3930694 L19.1206632,10.3930694 Z M60.7851606,90.8520124 L19.1206632,90.8520124 C15.7870259,90.8520124 13.0751503,88.1396394 13.0751503,84.8064995 L13.0751503,12.9567171 C13.0751503,9.6235772 15.7870259,6.91120415 19.1206632,6.91120415 L60.7851606,6.91120415 C64.1187979,6.91120415 66.8306736,9.6235772 66.8306736,12.9567171 L66.8306736,18.2277637 C66.8316684,18.3182922 66.9018031,28.5405513 66.9366218,38.6459192 C66.9570481,44.5829969 66.962487,49.3198259 66.9510466,52.7235979 C66.9445803,54.6545409 66.9331399,56.2666446 66.9137409,57.399743 C66.9008083,58.1891316 66.8908601,58.7885098 66.8306736,59.254085 L66.8306736,84.8064995 C66.8306736,88.1396394 64.1187979,90.8520124 60.7851606,90.8520124 L60.7851606,90.8520124 Z" id="Fill-6" fill="#000000"></path>
                    <path d="M45.1027896,85.5145119 L34.8029347,85.5145119 C34.2532974,85.5145119 33.8081161,85.0688332 33.8081161,84.5196933 C33.8081161,83.9705534 34.2532974,83.5248746 34.8029347,83.5248746 L45.1027896,83.5248746 C45.6519295,83.5248746 46.0976083,83.9705534 46.0976083,84.5196933 C46.0976083,85.0688332 45.6519295,85.5145119 45.1027896,85.5145119" id="Fill-8" fill="#000000"></path>
                    <path d="M79.6654259,59.1797223 L39.8890943,59.1797223 L34.8916228,62.2333181 L34.7528456,59.1797223 L29.4793119,59.1797223 C27.9860891,59.1797223 26.7753948,57.969028 26.7753948,56.4753078 L26.7753948,38.7749969 C26.7753948,37.2812767 27.9860891,36.0705824 29.4793119,36.0705824 L79.6654259,36.0705824 C81.1586487,36.0705824 82.3698404,37.2812767 82.3698404,38.7749969 L82.3698404,56.4753078 C82.3698404,57.969028 81.1586487,59.1797223 79.6654259,59.1797223" id="Fill-10" fill="#EB2127"></path>
                    <path d="M38.3100187,52.2216124 C38.1190135,52.2216124 37.9280083,52.1489907 37.7822674,52.0032497 L35.0758632,49.2963482 C34.7843813,49.0053637 34.7843813,48.5328249 35.0758632,48.241343 C35.3668477,47.9498611 35.8393865,47.9498611 36.1308684,48.241343 L38.3100187,50.4204933 L45.0006715,43.7298404 C45.2921534,43.4383585 45.7641948,43.4383585 46.0556767,43.7298404 C46.3471585,44.0213223 46.3471585,44.4938611 46.0556767,44.7848456 L38.8377699,52.0032497 C38.692029,52.1489907 38.5010238,52.2216124 38.3100187,52.2216124" id="Fill-12" fill="#FFFFFF"></path>
                    <path d="M74.0248539,44.0143585 L52.2318591,44.0143585 C51.9567917,44.0143585 51.7344497,43.7915192 51.7344497,43.5169492 C51.7344497,43.2423793 51.9567917,43.0195399 52.2318591,43.0195399 L74.0248539,43.0195399 C74.2994238,43.0195399 74.5222632,43.2423793 74.5222632,43.5169492 C74.5222632,43.7915192 74.2994238,44.0143585 74.0248539,44.0143585" id="Fill-14" fill="#8D1417"></path>
                    <path d="M74.0248539,48.3175959 L52.2318591,48.3175959 C51.9567917,48.3175959 51.7344497,48.0947565 51.7344497,47.8201865 C51.7344497,47.5456166 51.9567917,47.3227772 52.2318591,47.3227772 L74.0248539,47.3227772 C74.2994238,47.3227772 74.5222632,47.5456166 74.5222632,47.8201865 C74.5222632,48.0947565 74.2994238,48.3175959 74.0248539,48.3175959" id="Fill-16" fill="#8D1417"></path>
                    <path d="M74.0248539,52.6206342 L52.2318591,52.6206342 C51.9567917,52.6206342 51.7344497,52.3977948 51.7344497,52.1232249 C51.7344497,51.8486549 51.9567917,51.6258155 52.2318591,51.6258155 L74.0248539,51.6258155 C74.2994238,51.6258155 74.5222632,51.8486549 74.5222632,52.1232249 C74.5222632,52.3977948 74.2994238,52.6206342 74.0248539,52.6206342" id="Fill-18" fill="#8D1417"></path>
                </g>
            </g>
        </g>
    </g>
</svg>