<?xml version="1.0" encoding="UTF-8"?>
<svg width="32px" height="32px" viewBox="0 0 32 32" version="1.1" xmlns="http://www.w3.org/2000/svg" xmlns:xlink="http://www.w3.org/1999/xlink">
    <title>Group 5</title>
    <g id="Symbols" stroke="none" stroke-width="1" fill="none" fill-rule="evenodd">
        <g id="UI-Blocks/Web/Marketing/footer/Desktop" transform="translate(-1153.000000, -129.000000)">
            <g id="Group-5" transform="translate(1153.000000, 129.000000)">
                <path d="M16,0 C24.836,0 32,7.164 32,16 C32,24.836 24.836,32 16,32 C7.164,32 0,24.836 0,16 C0,7.164 7.164,0 16,0" id="Fill-1" fill="#C0C0C0"></path>
                <path d="M13.746,19.3759 L13.746,12.6259 L19.376,15.9959 L13.746,19.3759 Z M24.806,12.8459 C24.686,12.0259 24.486,11.4459 24.236,11.0059 C23.746,10.1359 23.216,9.9759 22.136,9.9159 C21.056,9.8459 18.346,9.8159 16.006,9.8159 C13.646,9.8159 10.936,9.8459 9.866,9.9159 C8.786,9.9759 8.256,10.1359 7.766,11.0059 C7.256,11.8759 6.996,13.3659 6.996,15.9959 L6.996,16.0059 C6.996,17.3159 7.066,18.3459 7.186,19.1559 C7.316,19.9659 7.506,20.5559 7.766,20.9859 C8.256,21.8559 8.786,22.0159 9.856,22.0859 C10.936,22.1469 13.646,22.1859 16.006,22.1859 C18.346,22.1859 21.056,22.1469 22.136,22.0859 C23.216,22.0159 23.746,21.8559 24.236,20.9859 C24.746,20.1259 24.996,18.6259 24.996,16.0059 L24.996,15.9959 C24.996,14.6859 24.936,13.6469 24.806,12.8459 L24.806,12.8459 Z" id="Fill-3" fill="#FFFFFF"></path>
            </g>
        </g>
    </g>
</svg>